<svg version="1.2" xmlns="http://www.w3.org/2000/svg" viewBox="0 0 1080 308" width="1080" height="308"><title>logo_ar-svg</title><style>.s0 { fill: #014441 } 
		.s1 { fill: #f28ab8 }</style><g><path class="s0" d="m499 85.2v171.1h-50.8q-9.9 0-17.9-1-8.1-1-14.9-3.2-6.9-2.2-12.5-5.6-5.6-3.4-10.7-8.3-8.2-7.7-11.5-19.9-3.3-12.3-3.3-25.7v-31.7h30.9v27.9q0 9.9 2.1 16.9 2.1 6.9 7.2 11.3 5.7 4.9 14.3 6.7 8.6 1.7 18.6 1.7h17.6v-140.2z"/><path class="s0" d="m1027.3 228.8v-112.4h-30.9v81.5"/><path class="s0" d="m797.9 228.7v-30.9l-247.8 0.1v-112.7h-30.9v143.5z"/><path class="s0" d="m988.3 273c-9.2 0-16.7-7.5-16.7-16.7 0-9.2 7.5-16.6 16.7-16.6 9.2 0 16.6 7.4 16.6 16.6 0 9.2-7.4 16.7-16.6 16.7z"/><path fill-rule="evenodd" class="s0" d="m789.7 197.8l20.8-0.1c3.1 0 5.7-2.6 5.7-5.7v-23.9c0-28.5 23.1-51.7 51.6-51.7h6.6c28.4 0 51.5 23.1 51.6 51.5v29.9h26.2v31h-91.8c-15.4 0-29.5-8.9-36-22.9v22.9h-34.7zm107.1-26.3q0-32.1-24.1-32.1-12.5 0-19.9 8.6-7 8.4-7 21.9c0 21.1 11.3 29.2 33.8 29.2h17.3z"/><path class="s0" d="m947.9 197.8l48.5 0.1 30.9 30.9-79.4-0.1z"/></g><path fill-rule="evenodd" class="s1" d="m197 85.2h108.3v144.3h-252.6v-180.4l144.3-36.1zm72.2 36.1l-180.4 18.4v35.3l180.4 18.5z"/></svg>