<svg width="211" height="285" viewBox="0 0 211 285" fill="none" xmlns="http://www.w3.org/2000/svg"><path d="M209.594 123.382C193.78 124.111 101.92 132.113 93.9458 219.661C93.9458 219.661 155.776 229.961 210.844 125.341C211.326 124.425 210.627 123.334 209.594 123.382Z" fill="url(#paint0_linear_175_1284)"/><path opacity="0.4" d="M194.404 133.653C190.132 136.344 185.911 139.126 181.717 141.943C177.523 144.762 173.362 147.629 169.236 150.545C160.983 156.375 152.86 162.39 144.932 168.649C137.009 174.913 129.266 181.409 121.902 188.308C118.209 191.745 114.643 195.314 111.222 199.011C107.807 202.712 104.537 206.549 101.594 210.618L101.592 210.62C101.382 210.911 100.976 210.976 100.685 210.766C100.395 210.556 100.329 210.15 100.54 209.859L100.542 209.856C103.552 205.747 106.876 201.897 110.338 198.19C113.807 194.489 117.414 190.923 121.144 187.494C128.581 180.612 136.384 174.148 144.361 167.921C152.343 161.7 160.514 155.727 168.812 149.941C172.961 147.048 177.144 144.203 181.359 141.407C185.576 138.613 189.814 135.857 194.114 133.185C194.243 133.105 194.413 133.144 194.493 133.274C194.573 133.402 194.534 133.571 194.406 133.652L194.404 133.653Z" fill="white"/><path d="M0.0054834 121.289C1.33451 135.599 12.4694 218.555 92.1911 222.089C92.1911 222.089 98.9194 165.589 1.72909 120.073C0.878954 119.675 -0.0813283 120.355 0.0054834 121.289Z" fill="url(#paint1_linear_175_1284)"/><path opacity="0.28" d="M10.0087 131.855C12.0937 136.205 14.3637 140.475 16.7144 144.692C19.0691 148.909 21.5259 153.068 24.0841 157.164C29.2034 165.352 34.712 173.302 40.7198 180.857C46.7327 188.402 53.2417 195.574 60.4605 201.963C62.2593 203.566 64.1183 205.099 66.0141 206.583C67.908 208.069 69.8583 209.482 71.8586 210.818C75.8484 213.505 80.0692 215.845 84.4773 217.744L84.4811 217.745C84.7173 217.847 84.8263 218.121 84.7246 218.357C84.6229 218.594 84.3489 218.703 84.1126 218.601L84.1106 218.6C79.6487 216.654 75.391 214.265 71.3762 211.535C69.3632 210.177 67.4031 208.743 65.5018 207.237C63.5985 205.733 61.7338 204.181 59.9312 202.56C52.6974 196.096 46.1968 188.865 40.2002 181.269C34.209 173.662 28.7257 165.669 23.6351 157.443C21.0911 153.328 18.6497 149.15 16.3108 144.916C13.9752 140.68 11.7244 136.399 9.65088 132.022C9.60423 131.923 9.64621 131.806 9.74474 131.759C9.84316 131.712 9.9608 131.754 10.0074 131.853L10.0087 131.855Z" fill="white"/><path d="M99.7842 49.5271H89.8569V267.162H99.7842V49.5271Z" fill="#E38BB1"/><path d="M95.2069 156.73C135.725 156.73 168.572 123.883 168.572 83.3646C168.572 42.8463 135.725 9.99976 95.2069 9.99976C54.6886 9.99976 21.842 42.8463 21.842 83.3646C21.842 123.883 54.6886 156.73 95.2069 156.73Z" fill="#26BBB4"/><path d="M95.2069 154.289C134.378 154.289 166.132 122.535 166.132 83.3639C166.132 44.1929 134.378 12.4385 95.2069 12.4385C56.0359 12.4385 24.2815 44.1929 24.2815 83.3639C24.2815 122.535 56.0359 154.289 95.2069 154.289Z" fill="#26BBB4"/><path d="M36.4428 55.8132C36.2425 55.8152 36.0383 55.772 35.8459 55.677C35.1896 55.3537 34.9199 54.5599 35.243 53.9049C46.4537 31.1304 69.174 16.8258 94.5384 16.572C98.5857 16.5315 102.643 16.8555 106.598 17.5364C107.319 17.6597 107.803 18.3442 107.679 19.0656C107.554 19.7858 106.875 20.2738 106.149 20.1451C102.351 19.4927 98.4529 19.1812 94.5648 19.2201C70.2058 19.464 48.3854 33.2022 37.6185 55.0735C37.3906 55.5375 36.9271 55.8084 36.4428 55.8132Z" fill="white"/><path opacity="0.78" d="M139.213 127.341C162.655 103.898 162.655 65.89 139.213 42.4472C115.77 19.0043 77.7615 19.0043 54.3187 42.4471C30.876 65.8899 30.876 103.898 54.3188 127.341C77.7616 150.784 115.77 150.784 139.213 127.341Z" fill="white"/><path d="M91.3238 129.578L91.2585 123.047C84.4477 122.843 77.698 121.303 72.8944 119.258C71.1791 118.527 70.2893 116.619 70.762 114.816L72.3601 108.716C72.9463 106.478 75.3618 105.3 77.5038 106.173C82.2682 108.114 88.1416 109.629 94.4582 109.566C101.015 109.5 105.883 107.228 105.838 102.671C105.797 98.5592 101.994 96.1522 92.8555 93.7985C79.8167 90.3723 70.4239 84.7973 70.3094 73.3498C70.2059 63.0133 77.6849 55.047 90.778 52.8044L90.7127 46.2732C90.6916 44.1716 92.3782 42.4511 94.4798 42.43L98.3167 42.3916C100.418 42.3705 102.139 44.057 102.16 46.1585L102.219 52.0224C108.521 52.2114 113.117 53.2429 116.769 54.4853C118.64 55.1217 119.679 57.12 119.181 59.0326L117.712 64.6736C117.145 66.8489 114.838 68.0604 112.728 67.2865C109.365 66.0529 104.614 64.7811 98.4569 64.8427C90.6769 64.9205 88.4867 68.1656 88.5157 71.0554C88.5514 74.6118 93.2436 77.0099 103.388 80.0211C117.88 84.2109 123.941 90.1522 124.049 100.933C124.148 110.824 116.902 119.789 102.699 122.154L102.772 129.463C102.793 131.565 101.106 133.285 99.0045 133.306L95.167 133.345C93.0656 133.366 91.3448 131.679 91.3238 129.578Z" fill="#26BBB4"/><path d="M53.9355 236.405H139.869C146.301 236.405 151.113 242.459 149.919 248.779C144.788 275.936 134.395 299.929 123.594 320.001C121.181 324.485 116.508 327.349 111.416 327.349H83.3746C78.2042 327.349 73.4624 324.537 70.9722 320.006C57.4897 295.473 50.9002 271.13 45.4023 247.309C44.1354 241.821 48.3028 236.405 53.9355 236.405Z" fill="url(#paint2_linear_175_1284)"/><path d="M157.031 247.307H39.4825C38.4143 247.307 37.5483 246.441 37.5483 245.373V227.86C37.5483 226.791 38.4143 225.925 39.4825 225.925H157.031C158.1 225.925 158.966 226.791 158.966 227.86V245.373C158.966 246.441 158.1 247.307 157.031 247.307Z" fill="#EA78AA"/><defs><linearGradient id="paint0_linear_175_1284" x1="152.473" y1="123.38" x2="152.473" y2="219.94" gradientUnits="userSpaceOnUse"><stop stop-color="#735462"/><stop offset="1" stop-color="#26BBB4"/></linearGradient><linearGradient id="paint1_linear_175_1284" x1="46.1453" y1="119.957" x2="46.1453" y2="222.089" gradientUnits="userSpaceOnUse"><stop stop-color="#735462"/><stop offset="1" stop-color="#26BBB4"/></linearGradient><linearGradient id="paint2_linear_175_1284" x1="97.6377" y1="236.405" x2="97.6377" y2="327.349" gradientUnits="userSpaceOnUse"><stop stop-color="#735462"/><stop offset="1" stop-color="#26BBB4"/></linearGradient></defs></svg>