<svg width="86" height="57" viewBox="0 0 86 57" fill="none" xmlns="http://www.w3.org/2000/svg"><path d="M25.4889 16H20.0801C19.7819 16 19.5264 16.2604 19.5264 16.5643V27.8072C19.5264 33.624 14.8842 38.3556 9.17717 38.3556H9.13458H1.55366C1.42589 38.3556 1.25553 38.399 1.17036 38.5293C1.08518 38.6161 1 38.7897 1 38.92V44.4329C1 44.5631 1.04259 44.7368 1.17036 44.8236C1.25553 44.9104 1.42589 44.9972 1.55366 44.9972H9.13458C11.6048 45.0406 14.0324 44.5631 16.3322 43.6516V38.3991H22.9336C24.8927 35.6209 26 32.0179 26 27.8072V16.5643C26 16.4775 26 16.434 25.9574 16.3472C25.9148 16.2604 25.8722 16.217 25.8296 16.1736C25.7871 16.1302 25.7019 16.0868 25.6593 16.0434C25.6167 16 25.5741 16 25.4889 16Z" fill="url(#paint0_radial_175_1412)"/><path d="M25.8567 15H20.272C19.6564 15 19.1287 15.5186 19.1287 16.1238V27.3186C19.1287 32.808 14.5993 37.26 9.01466 37.26C9.01466 37.26 9.01466 37.26 8.97069 37.26H1.1873C1.05537 37.26 0.879478 37.3032 0.747556 37.3465C0.615634 37.3897 0.483715 37.4761 0.351793 37.6058C0.263845 37.6923 0.175894 37.8219 0.0879465 37.9516C0.0439726 38.0813 0 38.2542 0 38.3838V43.8732C0 44.1758 0.131923 44.4351 0.351793 44.6512C0.571663 44.8673 0.835504 44.997 1.14332 44.997H8.97069C11.5212 45.0402 14.0277 44.608 16.4023 43.7003V42.49C14.0277 43.441 11.5212 43.9596 8.97069 43.9164L1.14332 43.8732V38.3406H8.97069C15.171 38.3406 20.228 33.4131 20.228 27.2754L20.272 16.0373H25.8567V27.2754C25.8567 31.5545 24.5814 35.2285 22.3388 37.9948H23.7899C25.8567 35.0988 27 31.4681 27 27.2754V16.0373C27 15.7347 26.8681 15.4754 26.6482 15.2593C26.4283 15.0864 26.1645 15 25.8567 15Z" fill="#142A51"/><path d="M53.2502 5.92366L56.5381 4.52988C56.3594 4.13676 56.1807 3.70791 56.0735 3.27906C55.7518 1.74233 56.7167 0.384287 58.2892 0.0626459C59.683 -0.223257 60.7909 0.491501 61.041 1.74233C61.3627 3.17184 60.5407 4.20824 59.1827 4.78005L53.7862 7.10301C53.679 7.13874 53.5361 7.13874 53.4289 7.10301C53.3216 7.06727 53.2144 6.96006 53.1787 6.85284L53.0357 6.5312C53 6.45973 53 6.42399 53 6.35251C53 6.28104 53 6.2453 53.0357 6.17382C53.0715 6.10235 53.1072 6.06661 53.143 6.03087C53.143 5.95939 53.1787 5.92366 53.2502 5.92366ZM58.7538 3.52922C59.3256 3.31479 59.7187 2.70725 59.6115 2.0997C59.6115 1.95675 59.54 1.84954 59.4686 1.74233C59.3971 1.63511 59.2899 1.5279 59.1827 1.45642C59.0754 1.38495 58.9682 1.34921 58.8253 1.31347C58.6823 1.31347 58.5751 1.31347 58.4322 1.34921C58.2535 1.38495 58.1105 1.42069 57.9676 1.5279C57.8246 1.63511 57.7174 1.74233 57.6102 1.88528C57.4315 2.17118 57.36 2.52856 57.4672 2.88594C57.5744 3.24332 57.7174 3.56496 57.8961 3.8866L58.7538 3.52922Z" fill="#1369B2"/><path d="M22.9187 51.0413H22.2276C22.187 51.0413 22.1463 51.0413 22.1463 51.0827C22.1057 51.0827 22.1057 51.1241 22.065 51.1655L20.6423 54.7655L19.0976 51.1241C19.0976 51.0827 19.0569 51.0827 19.0163 51.0413C18.9756 51 18.935 51 18.935 51H18.2033C18.1626 51 18.1626 51 18.122 51C18.0813 51 18.0813 51.0413 18.0406 51.0413L18 51.0827C18 51.1241 18 51.1241 18 51.1655V56.8344C18 56.8758 18 56.9172 18.0406 56.9586C18.0813 57 18.122 57 18.1626 57H18.7317C18.7724 57 18.813 57 18.8537 56.9586C18.8943 56.9172 18.8943 56.8758 18.8943 56.8344V53.5655L19.9512 56.0482C19.9512 56.0896 19.9919 56.131 20.0325 56.131C20.0732 56.131 20.1138 56.1724 20.1138 56.1724H20.8455C20.8862 56.1724 20.9268 56.1724 20.9268 56.131C20.9675 56.0896 20.9675 56.0896 21.0081 56.0482L22.0244 53.5241V56.8344C22.0244 56.9172 22.1057 57 22.187 57H22.8374C22.878 57 22.9187 57 22.9594 56.9586C23 56.9172 23 56.8758 23 56.8344V51.1655C23 51.1241 22.9594 51.0827 22.9594 51.0413C23 51.0413 22.9593 51.0413 22.9187 51.0413Z" fill="#142A51"/><path d="M33.7558 51H33.0116C32.9651 51 32.9651 51 32.9186 51C32.8721 51 32.872 51.0413 32.8255 51.0413L32.779 51.0827C32.779 51.1241 32.779 51.1241 32.779 51.1655V54.3517C32.8255 54.7655 32.779 55.1793 32.6395 55.5517C32.5465 55.7172 32.4069 55.8413 32.2209 55.9241C31.7557 56.0896 31.2906 56.0896 30.8255 55.9241C30.6394 55.8413 30.4533 55.7586 30.3603 55.5931C30.2208 55.262 30.1743 54.931 30.2208 54.6V51.1655C30.2208 51.1241 30.1743 51.0827 30.1743 51.0413C30.1277 51 30.0812 51 30.0347 51H29.1975C29.151 51 29.151 51 29.1044 51C29.0579 51 29.0579 51.0413 29.0579 51.0413L29.0114 51.0827C29.0114 51.1241 29.0114 51.1241 29.0114 51.1655V54.7241C28.9649 55.2206 29.0579 55.7172 29.337 56.131C29.5696 56.4206 29.8952 56.6689 30.2673 56.7931C30.6859 56.9172 31.151 57 31.5697 57C32.0348 57 32.4534 56.9172 32.872 56.7517C33.1976 56.5862 33.5232 56.3379 33.7093 56.0482C33.9419 55.5931 34.0349 55.0551 33.9884 54.5586V51.2069C33.9884 51.0827 33.8953 51 33.7558 51Z" fill="#142A51"/><path d="M43.7004 51.3404C43.1277 51.091 42.467 50.9663 41.8502 51.0078H40.1762C40.0881 51.0078 40 51.091 40 51.1741V56.8274C40 56.8689 40 56.9105 40.0441 56.9521C40.0881 56.9936 40.1322 56.9936 40.1762 56.9936H41.9383C42.5551 57.0352 43.2159 56.8689 43.7445 56.578C44.141 56.3285 44.4934 55.9129 44.6696 55.4972C45.1101 54.458 45.1101 53.3356 44.6696 52.2964C44.4934 51.9223 44.141 51.5898 43.7004 51.3404ZM43.7885 54.0839C43.7885 54.458 43.7445 54.8737 43.5683 55.2478C43.4802 55.4972 43.2599 55.7466 42.9956 55.8713C42.6432 56.0376 42.2467 56.0791 41.8502 56.0791H41.1454V51.9639H41.8502C42.2467 51.9223 42.6872 52.0055 43.0396 52.1717C43.304 52.338 43.4802 52.5874 43.5683 52.8368C43.7445 53.2525 43.8326 53.6682 43.7885 54.0839Z" fill="#142A51"/><path d="M54.6176 51.1241C54.6176 51.0827 54.5735 51.0413 54.5294 51.0413C54.4853 51 54.4412 51 54.4412 51H53.6471C53.6029 51 53.5588 51 53.5588 51.0413C53.5147 51.0827 53.5147 51.0827 53.4706 51.1241L51 56.7517C51 56.7931 51 56.7931 51 56.8344C51 56.8758 51 56.8758 51.0441 56.9172C51.0882 56.9586 51.1324 57 51.2206 57H51.9706C52.0147 57 52.0588 57 52.0588 56.9586C52.1029 56.9586 52.1029 56.9172 52.1471 56.8758L52.7647 55.4275H55.1471L55.7206 56.8758C55.7206 56.9172 55.7647 56.9586 55.8088 56.9586C55.8529 57 55.8971 57 55.9412 57H56.7794C56.8235 57 56.8235 57 56.8676 56.9586C56.9118 56.9586 56.9118 56.9172 56.9559 56.9172C56.9559 56.8758 57 56.8758 57 56.8344C57 56.7931 57 56.7931 57 56.7517L54.6176 51.1241ZM54.75 54.5586H53.1618L54 52.6551L54.75 54.5586Z" fill="#142A51"/><path d="M66.6801 52.3796C66.5035 51.9639 66.1503 51.5898 65.7088 51.3404C65.1348 51.091 64.4725 50.9663 63.8544 51.0078H62.1766C62.1325 51.0078 62.0883 51.0078 62.0442 51.0494C62 51.091 62 51.1325 62 51.1741V56.8274C62 56.8689 62.0442 56.9105 62.0442 56.9521C62.0883 56.9936 62.1325 56.9936 62.1766 56.9936H63.9427C64.5608 57.0352 65.2231 56.8689 65.7529 56.578C66.1503 56.3285 66.5035 55.9544 66.6801 55.4972C66.9009 54.9984 66.9892 54.458 66.9892 53.9592C67.0333 53.4603 66.945 52.8784 66.6801 52.3796ZM65.6205 52.8784C65.7529 53.2525 65.8412 53.6682 65.7971 54.0839C65.7971 54.458 65.7529 54.8737 65.5763 55.2478C65.488 55.4972 65.2672 55.7466 65.0023 55.8713C64.6491 56.0376 64.2517 56.0791 63.8544 56.0791H63.148V51.9639H63.8544C64.2517 51.9223 64.6933 52.0055 65.0465 52.1717C65.3114 52.338 65.5322 52.5874 65.6205 52.8784Z" fill="#142A51"/><path d="M79.9851 15.5647C76.6725 12.6469 72.7497 11.63 68.3911 12.1163C64.9913 12.47 61.8531 13.929 59.4122 16.3605C54.0947 21.6658 52.6563 29.7564 55.751 36.609C55.8381 36.83 55.9689 37.0069 56.1868 37.1395C56.3612 37.2722 56.6227 37.3164 56.8406 37.2722C59.3687 37.2722 61.8531 37.2722 64.3811 37.2722C64.5555 37.2722 64.6862 37.2722 64.8606 37.2722C64.9477 37.2722 65.0349 37.2279 65.1221 37.1837C65.2093 37.1395 65.2528 37.0511 65.2964 36.9627C65.3836 36.7858 65.34 36.5648 65.2093 36.3879C65.0785 36.2111 64.9041 36.0343 64.7298 35.8574C61.0249 32.0111 61.0685 25.7774 64.9041 22.0195C64.9477 21.9753 64.9913 21.9311 65.0349 21.8869C68.086 18.9248 72.9241 19.4995 75.4521 21.8869C77.3263 23.6553 78.3724 26.2195 78.2852 28.8279C78.1981 32.8953 75.0162 38.1122 68.8269 38.1564H54.6613C53.4409 38.1564 52.2205 38.2006 51 38.1122C47.1644 37.7585 43.6339 34.5311 42.8929 30.729C42.6314 29.27 42.5006 27.8111 42.5006 26.3521C42.5006 23.169 42.5442 19.9858 42.5878 16.8026C42.6314 15.6532 42.2827 15.0784 40.8879 15.1226C39.7111 15.1669 38.5343 15.1226 37.3574 15.1226H35.7883C35.2217 15.1226 34.7422 15.5205 34.6986 16.0953C34.6986 16.2279 34.6986 16.4048 34.6986 16.5374C34.6986 19.6321 34.7422 22.7269 34.6986 25.8216C34.6986 27.0595 34.6986 28.2974 34.5679 29.5353C34.2628 32.8069 32.3014 35.6806 29.3811 37.1395C28.1607 37.7143 26.8095 38.0237 25.4583 38.0237H16.5666C16.4359 38.0237 16.2615 38.0679 16.1743 38.2006C16.0872 38.289 16 38.4658 16 38.5985V45.3627C16 45.6722 16.2615 45.9374 16.5666 45.9374H25.4583C26.6787 45.8932 27.8555 45.8048 29.0324 45.5837L29.2503 45.5395L29.4247 45.4953C30.4707 45.2743 31.5168 44.9206 32.4757 44.3901C33.4346 43.948 34.3499 43.3732 35.2217 42.7543C36.2678 42.0027 37.1831 41.1185 38.0548 40.1458L38.6214 39.5269C38.7086 39.6595 38.7958 39.7922 38.883 39.9248C39.9726 41.1627 41.2366 42.268 42.6314 43.1964C45.0287 44.8322 47.6003 45.8932 50.5206 45.9374C56.6663 45.9816 62.8556 46.0259 69.0013 45.9816C73.5779 45.9816 77.9801 44.0806 81.1184 40.6764C83.9079 37.8027 85.6078 34.0448 85.9129 30.0216C86.4795 24.1858 84.2566 19.3669 79.9851 15.5647ZM84.9976 29.3585C84.9104 31.1711 84.5181 32.9395 83.7771 34.5753C82.6875 37.2722 80.944 39.6595 78.6775 41.4722C75.9751 43.6385 72.6626 44.788 69.2628 44.788C63.4222 44.8322 57.538 44.788 51.6974 44.788C48.9515 44.8322 46.2055 44.0364 43.8954 42.489C42.1084 41.428 40.5392 40.0574 39.2752 38.4216C38.8394 37.8469 38.5343 37.8469 38.0548 38.4658C36.8344 40.1016 35.3089 41.4722 33.609 42.5332C32.9552 42.9311 32.3014 43.2848 31.6476 43.5943C29.7298 44.3901 27.6376 44.788 25.5455 44.7437H17.1768V39.0848H25.5455C26.8966 39.0848 28.2042 38.8195 29.4683 38.3332C32.6937 36.9185 35.0037 34.0006 35.6575 30.5079C35.7883 29.8006 35.8319 29.0932 35.8319 28.3416C35.8319 24.4953 35.8319 20.7374 35.8755 16.8911C35.8755 16.67 35.8755 16.449 35.9191 16.1395H41.5417V16.9795C41.5417 20.7374 41.5417 24.4511 41.5417 28.209C41.5417 29.0932 41.6289 29.9774 41.7597 30.8616C42.1955 33.249 43.5467 35.1058 45.3338 36.6532C47.208 38.3332 49.6053 39.2174 52.0461 39.1732C57.6252 39.129 63.2043 39.129 68.7834 39.1732C73.0984 39.2616 77.0648 36.609 78.5903 32.4974C80.1594 28.5185 79.4621 24.849 76.8033 21.6216C73.4471 17.51 66.9091 17.6869 63.5094 21.8427C60.5891 25.3795 60.1532 30.4195 62.4197 34.4427C62.7248 34.9732 63.0299 35.4595 63.3786 36.0785C61.1557 36.1227 58.9764 36.0785 56.797 36.0785C56.5791 35.5479 56.3612 35.0174 56.1868 34.4869C54.0947 28.3416 55.7945 21.2237 60.4147 16.8911C62.7248 14.769 65.6015 13.4869 68.6962 13.1774C70.5268 12.9563 72.3575 13.089 74.1009 13.5311C76.4546 14.1058 78.5903 15.3437 80.2466 17.1121C83.4284 20.649 85.1719 24.6279 84.9976 29.3585Z" fill="#142A51"/><path d="M60.5741 41.7541H70.3678C73.5142 41.8417 76.4834 40.4401 78.4333 38.0311C80.782 35.1842 82.0228 31.943 81.7569 28.2638C81.4467 23.4459 78.1674 18.8031 73.204 17.4891C72.362 17.3139 71.5643 17.1825 70.7223 17.0949C70.5894 17.0949 70.4564 17.0949 70.2792 17.0949C69.969 17.0949 69.7474 16.8321 69.7917 16.5255C69.7917 16.4379 69.7917 16.3941 69.836 16.3065C69.8803 16.2628 69.9247 16.1752 69.969 16.1314C70.0133 16.0876 70.0576 16.0438 70.1462 16.0438C70.1906 16 70.2792 16 70.3678 16C70.9439 16 71.4757 16 72.0518 16.0876C76.2618 16.7445 79.2753 19.0659 81.3138 22.7013C82.4217 24.6285 83.0421 26.8184 82.9978 29.0522C82.8648 33.3884 81.3138 37.1989 77.9901 40.1773C75.9516 41.9731 73.337 42.9805 70.5894 42.9805C65.1386 43.0243 59.7764 42.9805 54.3255 42.9805C52.9961 42.9805 51.6666 42.9805 50.3371 42.9367C48.6088 42.8929 46.8805 42.4111 45.4181 41.4913C41.2524 39.0385 38.8151 35.4908 38.106 30.7604C38.0174 29.9282 37.9731 29.0522 38.0174 28.1762V19.0659C38.0617 18.6717 38.239 18.4527 38.5492 18.4527C38.9037 18.4965 39.1253 18.7593 39.1253 19.0659V19.6353C39.1253 22.7889 39.0366 25.9863 39.1696 29.1398C39.3912 34.5272 42.0058 38.4691 46.8805 40.9219C48.1214 41.5351 49.4951 41.8417 50.8689 41.7979C54.0597 41.7541 57.339 41.7541 60.5741 41.7541Z" fill="#142A51"/><path d="M59 31.3229C59 31.6389 58.9355 31.8645 58.7097 31.9548C58.6452 31.9548 58.6129 32 58.5484 32C58.4839 32 58.4516 31.9548 58.4194 31.9097C58.3871 31.8646 58.3226 31.8194 58.2903 31.7743C58.2581 31.7291 58.2258 31.6389 58.2258 31.5937C58.129 30.9167 58.0323 30.2397 58 29.5627C58 29.4273 58.0323 29.2919 58.0968 29.2016C58.2258 28.9759 58.4516 28.9308 58.6129 29.1114C58.6774 29.2016 58.7419 29.2919 58.7742 29.4273C58.8387 30.014 58.9032 30.6459 59 31.3229Z" fill="#142A51"/><path d="M58.9963 33C59.0627 33.049 59.3284 33.049 59.3948 33.1963C59.6605 33.5889 59.8598 33.9816 59.9926 34.4233C60.0591 34.5705 59.6605 34.865 59.3948 34.9631C59.262 35.0122 59.1292 35.0122 58.9963 34.9631C58.8635 34.9141 58.7306 34.865 58.5978 34.8159C58.3321 34.4724 58.1328 34.0797 58 33.6871C58 33.2454 58.3985 33 58.9963 33Z" fill="#142A51"/><path d="M67.9567 16.3811C67.9567 16.2964 67.9135 16.2541 67.8702 16.2117C67.827 16.1694 67.7837 16.127 67.7405 16.0847C67.6972 16.0423 67.6107 16.0423 67.5674 16C67.4809 16 67.4377 16 67.3512 16C66.8321 16.0847 66.2698 16.2541 65.7507 16.4235C61.8578 17.9482 59.522 20.7858 58.3973 24.6399C58.3108 24.894 58.2676 25.1481 58.1811 25.4023H58.2243C58.1378 25.8681 58.0513 26.3764 58.008 26.8423V27.054C57.9648 27.647 58.0945 27.9011 58.4406 27.9858C58.7866 28.0705 59.0462 27.774 59.0894 27.1387C59.1327 26.207 59.3489 25.2752 59.6517 24.3858C60.5168 21.6752 62.4201 19.3458 64.9721 17.9905C65.7075 17.6517 66.4861 17.3552 67.2647 17.1011C67.3944 17.0588 67.5242 17.0588 67.654 16.9741C67.7405 16.9317 67.7837 16.9317 67.827 16.8894C67.8702 16.847 67.9135 16.8047 67.9567 16.72C68 16.6776 68 16.5929 68 16.5082C68 16.4658 68 16.4235 67.9567 16.3811Z" fill="#142A51"/><defs><radialGradient id="paint0_radial_175_1412" cx="0" cy="0" r="1" gradientUnits="userSpaceOnUse" gradientTransform="translate(3.36384 21.0614) rotate(0.0846968) scale(29.3654 29.9306)"><stop stop-color="#4A3F8D"/><stop offset="0.13" stop-color="#3F509C"/><stop offset="0.38" stop-color="#247DC2"/><stop offset="0.51" stop-color="#1497D9"/><stop offset="0.6" stop-color="#1A8ED1"/><stop offset="0.75" stop-color="#2976BC"/><stop offset="0.94" stop-color="#414E9A"/><stop offset="1" stop-color="#4A3F8D"/></radialGradient></defs></svg>