<svg width="61" height="34" viewBox="0 0 61 34" fill="none" xmlns="http://www.w3.org/2000/svg"><mask id="mask0_8_225" style="mask-type:luminance" maskUnits="userSpaceOnUse" x="0" y="17" width="61" height="17"><path d="M0.116699 17.5599H60.9859V33.6829H0.116699V17.5599Z" fill="white"/></mask><g mask="url(#mask0_8_225)"><path d="M60.8008 30.3107C60.9111 30.3107 60.9859 30.2358 60.9859 30.123V24.5021C60.9859 22.459 59.8756 21.1287 57.8218 21.1287C56.4713 21.1287 55.5643 21.6721 54.9547 22.5347H54.9353C54.436 21.635 53.5477 21.1287 52.3457 21.1287C51.1427 21.1287 50.2916 21.6539 49.8666 22.3471H49.8479V21.5223C49.8479 21.4103 49.7736 21.3353 49.6626 21.3353H48.4789C48.3678 21.3353 48.2938 21.4103 48.2938 21.5223V30.123C48.2938 30.2358 48.3678 30.3107 48.4789 30.3107H49.6626C49.7736 30.3107 49.8479 30.2358 49.8479 30.123V24.783C49.8479 23.4526 50.6802 22.5907 51.8832 22.5907C53.2152 22.5907 53.8624 23.4337 53.8624 24.8767V30.123C53.8624 30.2358 53.9362 30.3107 54.0477 30.3107H55.2318C55.3425 30.3107 55.4173 30.2358 55.4173 30.123V24.783C55.4173 23.4526 56.2677 22.5907 57.4518 22.5907C58.7849 22.5907 59.4316 23.4337 59.4316 24.8767V30.123C59.4316 30.2358 59.5048 30.3107 59.6163 30.3107H60.8008ZM40.9114 25.0455C40.8374 25.0455 40.8004 25.0076 40.8004 24.9327C40.8004 24.5204 40.8374 24.2024 40.9304 23.9211C41.2262 23.0212 41.9667 22.5157 42.9657 22.5157C43.9643 22.5157 44.7045 23.0212 45.0002 23.9211C45.0927 24.2024 45.1303 24.5204 45.1303 24.9327C45.1303 25.0076 45.0927 25.0455 45.0188 25.0455H40.9114ZM43.0582 30.5165C44.6115 30.5165 45.8146 29.8793 46.5175 28.9805C46.5915 28.8866 46.5915 28.7928 46.499 28.7179L45.7407 28.0247C45.6478 27.9498 45.5553 27.9687 45.4635 28.0617C44.9823 28.624 44.242 29.0554 43.1875 29.0554C42.0959 29.0554 41.3001 28.5302 40.9482 27.4995C40.8564 27.1999 40.8004 26.9001 40.8004 26.4129C40.8004 26.338 40.8374 26.3001 40.9114 26.3001H46.5175C46.6468 26.3001 46.7208 26.226 46.7208 26.1132C46.7208 24.7452 46.6283 24.1269 46.4436 23.5457C45.9438 22.0096 44.6677 21.1287 42.9657 21.1287C41.2822 21.1287 39.9867 21.9907 39.4875 23.5457C39.3022 24.0897 39.2096 24.783 39.2096 25.8136C39.2096 26.8441 39.3201 27.4995 39.5055 28.0807C39.9867 29.6358 41.2629 30.5165 43.0582 30.5165ZM32.364 25.0455C32.2907 25.0455 32.2526 25.0076 32.2526 24.9327C32.2526 24.5204 32.2907 24.2024 32.3826 23.9211C32.6785 23.0212 33.4183 22.5157 34.4172 22.5157C35.4168 22.5157 36.1565 23.0212 36.4532 23.9211C36.5451 24.2024 36.5825 24.5204 36.5825 24.9327C36.5825 25.0076 36.5451 25.0455 36.4719 25.0455H32.364ZM34.5098 30.5165C36.0647 30.5165 37.2669 29.8793 37.9701 28.9805C38.0439 28.8866 38.0439 28.7928 37.9512 28.7179L37.193 28.0247C37.1003 27.9498 37.0076 27.9687 36.9156 28.0617C36.4339 28.624 35.6942 29.0554 34.6391 29.0554C33.5483 29.0554 32.7531 28.5302 32.4013 27.4995C32.3087 27.1999 32.2526 26.9001 32.2526 26.4129C32.2526 26.338 32.2907 26.3001 32.364 26.3001H37.9701C38.0993 26.3001 38.1733 26.226 38.1733 26.1132C38.1733 24.7452 38.0813 24.1269 37.8961 23.5457C37.397 22.0096 36.1199 21.1287 34.4172 21.1287C32.7338 21.1287 31.439 21.9907 30.9391 23.5457C30.7546 24.0897 30.6619 24.783 30.6619 25.8136C30.6619 26.8441 30.7725 27.4995 30.9578 28.0807C31.439 29.6358 32.7151 30.5165 34.5098 30.5165ZM25.3712 29.0554C24.3901 29.0554 23.7244 28.568 23.4278 27.6872C23.2798 27.2187 23.2245 26.6377 23.2245 25.8136C23.2245 25.0076 23.2798 24.4266 23.4278 23.94C23.7244 23.0591 24.3901 22.5907 25.3712 22.5907C26.3514 22.5907 27.0358 23.0402 27.3317 23.94C27.4797 24.3893 27.5357 24.9138 27.5357 25.8136C27.5357 26.7126 27.4797 27.2566 27.3317 27.6872C27.0358 28.5868 26.3514 29.0554 25.3712 29.0554ZM28.9045 33.6833C29.0158 33.6833 29.0898 33.6084 29.0898 33.4958V21.5223C29.0898 21.4103 29.0158 21.3353 28.9045 21.3353H27.7203C27.6097 21.3353 27.5357 21.4103 27.5357 21.5223V22.3659H27.517C27.0911 21.6539 26.3327 21.1287 25.0005 21.1287C23.4651 21.1287 22.3921 21.8598 21.9477 23.2839C21.7077 23.996 21.6331 24.7079 21.6331 25.8136C21.6331 26.938 21.7077 27.6501 21.9477 28.3622C22.3921 29.7863 23.4651 30.5165 25.0005 30.5165C26.3327 30.5165 27.0911 29.9732 27.517 29.2612H27.5357V33.4958C27.5357 33.6084 27.6097 33.6833 27.7203 33.6833H28.9045ZM19.8758 30.3107C19.987 30.3107 20.061 30.2358 20.061 30.123V21.5223C20.061 21.4103 19.987 21.3353 19.8758 21.3353H18.6922C18.5809 21.3353 18.5069 21.4103 18.5069 21.5223V26.8441C18.5069 28.1934 17.7111 29.0554 16.5088 29.0554C15.1947 29.0554 14.5476 28.2116 14.5476 26.7504V21.5223C14.5476 21.4103 14.4737 21.3353 14.3623 21.3353H13.178C13.0674 21.3353 12.9934 21.4103 12.9934 21.5223V27.125C12.9934 29.1674 14.1217 30.5165 16.0643 30.5165C17.2113 30.5165 18.0257 30.0292 18.4882 29.2801H18.5069V30.123C18.5069 30.2358 18.5809 30.3107 18.6922 30.3107H19.8758ZM0.116699 30.123C0.116699 30.2358 0.190673 30.3107 0.30202 30.3107H1.46754C1.57811 30.3107 1.65208 30.2358 1.65208 30.123V21.2604H1.70737L4.83436 28.2684C4.90833 28.4371 5.00099 28.493 5.18554 28.493H5.9259C6.09253 28.493 6.18519 28.4371 6.25917 28.2684L9.38615 21.2604H9.44144V30.123C9.44144 30.2358 9.51541 30.3107 9.62676 30.3107H10.7923C10.9028 30.3107 10.9768 30.2358 10.9768 30.123V17.756C10.9768 17.6442 10.9028 17.5691 10.7923 17.5691H9.58939C9.44144 17.5691 9.34878 17.6252 9.29349 17.756L5.61131 26.338H5.55618L1.80003 17.756C1.74474 17.6252 1.65208 17.5691 1.50414 17.5691H0.30202C0.190673 17.5691 0.116699 17.6442 0.116699 17.756" fill="#EC7402"/></g><path d="M30.6123 5.46578C30.898 5.8862 31.041 6.47022 31.041 7.22003C31.041 8.03756 30.898 8.6341 30.6123 9.00869C30.3265 9.38391 29.869 9.57081 29.2412 9.57081C28.6136 9.57081 28.157 9.38391 27.8711 9.00869C27.5845 8.6341 27.4416 8.03756 27.4416 7.22003C27.4416 6.47022 27.5845 5.8862 27.8711 5.46578C28.157 5.04536 28.6136 4.83515 29.2412 4.83515C29.869 4.83515 30.3265 5.04536 30.6123 5.46578ZM30.5785 10.6866C30.9771 10.5448 31.3131 10.3266 31.5876 10.0313C31.8626 9.73598 32.0753 9.3556 32.2274 8.88935C32.3783 8.42389 32.4536 7.86739 32.4536 7.22003C32.4536 5.91451 32.1679 4.96903 31.5968 4.38423C31.0237 3.79943 30.2389 3.50632 29.2412 3.50632C28.2438 3.50632 27.4589 3.79943 26.8872 4.38423C26.3147 4.96903 26.029 5.91451 26.029 7.22003V7.56928C26.029 7.67767 26.034 7.7881 26.0462 7.90165C26.0462 8.19694 26.0153 8.44422 25.9535 8.64207C25.8911 8.84133 25.8106 9.00071 25.7093 9.11927C25.6088 9.23845 25.4961 9.32353 25.3733 9.37452C25.2497 9.42614 25.1262 9.45163 25.0026 9.45163H24.1618C23.9269 9.45163 23.7559 9.4887 23.6489 9.56221C23.5426 9.63634 23.4895 9.81527 23.4895 10.0988C23.4895 10.5535 23.7136 10.7805 24.1618 10.7805H24.8848C25.1988 10.7805 25.5413 10.7324 25.9112 10.6358C26.2811 10.539 26.5841 10.309 26.8197 9.9454C27.0997 10.275 27.4416 10.5164 27.8452 10.6699C28.2496 10.8227 28.7142 10.8996 29.2412 10.8996C29.7347 10.8996 30.1807 10.8285 30.5785 10.6866ZM19.2846 2.12729C19.3967 2.12729 19.4526 2.07052 19.4526 1.95634V0.713383C19.4526 0.599832 19.3967 0.543213 19.2846 0.543213H18.1413C18.0286 0.543213 17.9733 0.599832 17.9733 0.713383V1.95634C17.9733 2.07052 18.0286 2.12729 18.1413 2.12729H19.2846ZM21.3364 2.12729C21.4485 2.12729 21.5052 2.07052 21.5052 1.95634V0.713383C21.5052 0.599832 21.4485 0.543213 21.3364 0.543213H20.1931C20.0811 0.543213 20.0251 0.599832 20.0251 0.713383V1.95634C20.0251 2.07052 20.0811 2.12729 20.1931 2.12729H21.3364ZM21.0678 5.31235C21.4147 5.63094 21.5892 6.09062 21.5892 6.692C21.5892 7.30527 21.409 7.81938 21.0505 8.23401C20.6915 8.64864 20.2541 8.9577 19.7392 9.16212C19.2229 8.9577 18.7854 8.64864 18.4271 8.23401C18.0681 7.81938 17.8885 7.30527 17.8885 6.692C17.8885 6.09062 18.0624 5.63094 18.4099 5.31235C18.7575 4.99453 19.2006 4.83515 19.7392 4.83515C20.2771 4.83515 20.7194 4.99453 21.0678 5.31235ZM18.2591 3.73687C17.844 3.8903 17.4985 4.1027 17.2243 4.37547C16.9491 4.64824 16.7452 4.97482 16.6108 5.35442C16.4759 5.73558 16.4084 6.1524 16.4084 6.60692C16.4084 7.18593 16.5406 7.72272 16.8033 8.21665C17.0669 8.7112 17.4281 9.12286 17.8885 9.45163H15.4158C15.1809 9.45163 15.0101 9.4887 14.9031 9.56221C14.7967 9.63634 14.7436 9.81527 14.7436 10.0988C14.7436 10.5535 14.9677 10.7805 15.4158 10.7805H17.4519C17.7765 10.7805 18.1492 10.7637 18.57 10.7295C18.9902 10.6954 19.3859 10.576 19.7557 10.3716C20.0811 10.576 20.4223 10.6954 20.782 10.7295C21.1404 10.7637 21.5217 10.7805 21.9252 10.7805H24.1625C24.3979 10.7805 24.5682 10.7295 24.6752 10.627C24.7815 10.5244 24.8354 10.3317 24.8354 10.048C24.8354 9.80949 24.7787 9.65089 24.6674 9.57081C24.5546 9.49151 24.3865 9.45163 24.1625 9.45163H21.8247C21.7121 9.45163 21.628 9.45742 21.572 9.46899C22.0431 9.1396 22.4102 8.72497 22.6736 8.22525C22.9372 7.72553 23.0694 7.18593 23.0694 6.60692C23.0694 6.1524 23.002 5.73558 22.8676 5.35442C22.7325 4.97482 22.5278 4.64824 22.2536 4.37547C21.9785 4.1027 21.6337 3.8903 21.2195 3.73687C20.8034 3.58343 20.3109 3.50632 19.7392 3.50632C19.1669 3.50632 18.6735 3.58343 18.2591 3.73687ZM12.3384 13.9488C12.4505 13.9488 12.5064 13.892 12.5064 13.7786V12.5347C12.5064 12.4213 12.4505 12.3645 12.3384 12.3645H11.1944C11.0824 12.3645 11.0264 12.4213 11.0264 12.5347V13.7786C11.0264 13.892 11.0824 13.9488 11.1944 13.9488H12.3384ZM14.3902 13.9488C14.5024 13.9488 14.5584 13.892 14.5584 13.7786V12.5347C14.5584 12.4213 14.5024 12.3645 14.3902 12.3645H13.2462C13.1342 12.3645 13.0782 12.4213 13.0782 12.5347V13.7786C13.0782 13.892 13.1342 13.9488 13.2462 13.9488H14.3902ZM11.733 10.7805C12.6186 10.7805 13.2017 10.4852 13.4819 9.89457C13.6276 10.1899 13.8352 10.4116 14.1044 10.5587C14.3737 10.7069 14.6877 10.7805 15.046 10.7805H15.4158C15.6515 10.7805 15.8223 10.7374 15.9293 10.6524C16.0356 10.5673 16.0887 10.3774 16.0887 10.0821C16.0887 9.85531 16.0328 9.69312 15.9207 9.59631C15.8087 9.50027 15.6407 9.45163 15.4158 9.45163H15.214C14.7544 9.45163 14.3875 9.3556 14.1124 9.16212C13.838 8.96927 13.7008 8.67992 13.7008 8.29297V3.98352C13.7008 3.86997 13.6448 3.81335 13.5328 3.81335H12.4563C12.3435 3.81335 12.2875 3.86997 12.2875 3.98352V8.54901C12.2875 8.88935 12.2235 9.12568 12.0943 9.25597C11.965 9.38688 11.7604 9.45163 11.4802 9.45163H10.337C10.1014 9.45163 9.93049 9.50246 9.82424 9.60506C9.71706 9.70688 9.66393 9.90036 9.66393 10.1839C9.66393 10.4226 9.71999 10.5818 9.83211 10.6611C9.94485 10.7404 10.1129 10.7805 10.337 10.7805H11.733ZM6.91423 5.46578C7.19993 5.8862 7.34279 6.47022 7.34279 7.22003C7.34279 8.03756 7.19993 8.6341 6.91423 9.00869C6.6276 9.38391 6.17079 9.57081 5.54317 9.57081C4.91477 9.57081 4.45873 9.38391 4.17225 9.00869C3.88639 8.6341 3.74339 8.03756 3.74339 7.22003C3.74339 6.47022 3.88639 5.8862 4.17225 5.46578C4.45873 5.04536 4.91477 4.83515 5.54317 4.83515C6.17079 4.83515 6.6276 5.04536 6.91423 5.46578ZM6.92211 10.6779C7.32642 10.531 7.66818 10.2923 7.94832 9.96292C8.06029 10.1447 8.19542 10.2895 8.35186 10.3971C8.50923 10.5047 8.67432 10.5876 8.84821 10.6444C9.02195 10.7012 9.19862 10.7374 9.37823 10.755C9.55691 10.7717 9.72571 10.7805 9.8823 10.7805H10.2356C10.4713 10.7805 10.6421 10.7374 10.7491 10.6524C10.8548 10.5673 10.9087 10.3774 10.9087 10.0821C10.9087 9.85531 10.8526 9.69312 10.7405 9.59631C10.6278 9.50027 10.4597 9.45163 10.2356 9.45163H9.76524C9.51815 9.45163 9.28557 9.34684 9.0672 9.13663C8.84821 8.92642 8.73331 8.53228 8.7225 7.95248C8.73331 7.83908 8.74196 7.71975 8.74767 7.5954C8.75262 7.47028 8.75555 7.34515 8.75555 7.22003C8.75555 5.91451 8.46969 4.96903 7.89798 4.38423C7.32642 3.79943 6.54066 3.50632 5.54317 3.50632C4.5449 3.50632 3.75991 3.79943 3.18835 4.38423C2.61664 4.96903 2.33078 5.91451 2.33078 7.22003C2.33078 7.36768 2.33371 7.50672 2.33943 7.63763C2.34437 7.76854 2.35302 7.89586 2.36445 8.02098C2.34159 8.23698 2.27194 8.40997 2.15411 8.54025C2.03627 8.67116 1.89636 8.78753 1.73327 8.88935C1.57096 8.99195 1.39722 9.09377 1.2119 9.19622C1.02735 9.29804 0.856396 9.42614 0.699027 9.57957C0.541813 9.73316 0.413324 9.92585 0.312015 10.1586C0.211478 10.3913 0.161133 10.6836 0.161133 11.0357V14.1699H1.57374V11.3936C1.57374 11.075 1.62409 10.843 1.7254 10.6954C1.82593 10.5477 1.94655 10.4284 2.08662 10.3375C2.22669 10.2466 2.37248 10.1614 2.52398 10.0821C2.67548 10.003 2.8069 9.87189 2.91902 9.69015C3.19978 10.1106 3.561 10.4174 4.00407 10.6103C4.4473 10.803 4.96002 10.8996 5.54317 10.8996C6.05882 10.8996 6.51919 10.8255 6.92211 10.6779Z" fill="#EC7402"/></svg>