<svg width="102" height="79" viewBox="0 0 102 79" fill="none" xmlns="http://www.w3.org/2000/svg"><path d="M0.973308 34.5917V34.6815C0.90597 35.3998 0.861079 36.0956 0.883524 36.8139V45.7248C0.861079 57.06 10.0414 66.2852 21.3765 66.3076C26.0004 66.3076 30.512 64.7589 34.1482 61.8858C34.8889 61.2798 35.6072 60.6513 36.2805 59.9555C39.9616 56.1397 42.0266 51.0445 42.0266 45.7473V36.8363C42.0266 30.8433 46.8749 25.995 52.8455 25.995C55.3145 25.995 57.6938 26.8255 59.6241 28.3743C60.7015 25.2767 62.3401 22.3812 64.4949 19.8897C57.0878 14.7497 47.2116 15.0639 40.1412 20.6529C39.378 21.2365 38.6598 21.8874 38.0089 22.5832C34.3277 26.399 32.2627 31.4942 32.2627 36.7914V45.7024C32.2627 51.6954 27.4144 56.5437 21.4214 56.5437C15.4284 56.5437 10.5801 51.6954 10.5801 45.7024V36.8363C10.5801 36.4323 10.6025 36.0507 10.6474 35.6467L10.6923 35.108L10.7372 34.3673C10.8943 32.9307 11.2984 31.5391 11.9269 30.2597C12.3758 29.317 12.9145 28.4416 13.5878 27.6335C14.2388 26.8479 14.957 26.1521 15.7651 25.5461C15.8549 25.4787 15.9446 25.389 16.0344 25.3216L16.0793 25.2767C16.2813 25.1196 16.4609 24.9176 16.5956 24.6707L16.618 24.6258C16.6405 24.6034 16.6629 24.5585 16.6854 24.536C16.7751 24.3789 16.8425 24.2218 16.8649 24.0422V23.9524C16.82 23.3464 16.6405 22.7628 16.3487 22.2466L16.3262 22.2017C15.6977 21.1692 14.9121 20.2489 13.9694 19.5082L13.745 19.3286L13.6776 19.1939C13.5878 19.1266 13.4756 19.0593 13.3858 18.9919C11.9942 18.139 10.7148 18.139 9.30069 18.9695C8.51509 19.4633 7.81927 20.0469 7.21324 20.7651C4.76665 23.2791 1.71402 27.6335 0.995753 34.4571L0.973308 34.5917Z" fill="#2E2B7F"/><path d="M59.8486 73.0188C57.6489 78.5629 51.3416 81.2788 45.7975 79.0791C44.4957 78.5629 43.3285 77.7997 42.3184 76.8346C42.094 76.6325 41.892 76.453 41.7124 76.3407C41.5104 76.2061 41.2859 76.0714 41.039 76.0041C40.7472 75.8918 40.4105 75.8694 40.1187 75.9816C40.0738 76.0265 40.0065 76.049 39.9392 76.049C39.6249 76.251 39.3107 76.4754 39.0189 76.7223C38.4802 77.1712 37.9639 77.665 37.515 78.2037C36.8192 79.0118 36.1907 79.8872 35.6745 80.8299C35.6296 80.9197 35.5398 81.0319 35.4949 81.1441C35.046 82.5358 35.7643 83.8152 36.2356 84.4661L36.3254 84.6457C36.5723 84.915 36.8417 85.1844 37.111 85.4088C37.2008 85.4762 37.2681 85.5435 37.3355 85.6109C43.9121 91.0876 52.9353 89.6511 56.5042 88.7533C57.0429 88.641 57.5816 88.4839 58.1203 88.2819L58.2774 88.237C58.659 88.1023 59.0405 87.9677 59.3997 87.7881L59.6017 87.7208C59.6915 87.6759 59.8037 87.6085 59.8935 87.5636L59.9608 87.5187C62.991 86.0822 65.5498 83.8601 67.4352 81.0993C69.3207 78.316 70.3308 74.7695 70.3308 70.7966V64.3547C68.7371 63.614 67.4801 62.8508 65.5723 60.4267C63.7766 62.3121 62.4523 63.2549 60.6117 64.1527V67.6093C60.6342 67.6318 60.4995 71.4251 59.8486 73.0188Z" fill="#008FBB"/><path d="M83.7983 4.22223V11.6967H91.6544C93.854 11.6069 95.1559 10.1928 95.1559 7.81356V0.316666H87.2999C85.1002 0.428895 83.7983 1.84298 83.7983 4.22223Z" fill="#008FBB"/><path d="M70.4656 4.22223V11.6967H78.3216C80.5213 11.6069 81.8231 10.1928 81.8231 7.81356V0.316666H73.9671C71.7225 0.428895 70.4656 1.84298 70.4656 4.22223Z" fill="#008FBB"/><path d="M81.217 15.0637C76.6156 15.0637 72.1265 16.6124 68.5127 19.4855C67.7496 20.0691 67.0313 20.72 66.3804 21.4158C62.6993 25.2316 60.6342 30.3268 60.6342 35.624V44.535C60.6342 50.528 55.786 55.3763 49.8154 55.3763C47.3463 55.3763 44.9671 54.5458 43.0368 52.997C41.9594 56.0945 40.3208 58.9901 38.166 61.4815C45.5731 66.6216 55.4493 66.3074 62.5197 60.7184C63.2604 60.1123 63.9787 59.4839 64.652 58.788C68.3331 54.9723 70.3982 49.8771 70.3982 44.5799V35.6464C70.3982 29.6534 75.2464 24.8051 81.2395 24.8051C87.2325 24.8051 92.0808 29.6534 92.0808 35.6464V44.5574C92.0808 50.5504 87.2325 55.3987 81.2619 55.3987C78.7929 55.3987 76.4136 54.5682 74.4833 53.0195C73.4508 52.2114 72.4856 51.336 71.5878 50.3933C71.5878 50.3933 70.8022 54.7478 66.8966 59.2818C67.7496 60.0899 68.6698 60.8306 69.635 61.504C73.0468 63.8832 77.1319 65.1626 81.2844 65.1402C92.6419 65.1178 101.845 55.915 101.845 44.5574V35.6464C101.777 24.2664 92.5746 15.0861 81.217 15.0637Z" fill="#2E2B7F"/><path d="M8.94178 13.874L6.96655 11.8988C6.87677 11.8988 6.78698 11.9212 6.6972 11.9212H6.42785C5.59736 11.9212 4.78931 11.7866 4.02615 11.4948C3.35278 11.2254 2.74674 10.799 2.27538 10.2827C1.78157 9.744 1.42244 9.09308 1.19798 8.39726C0.951081 7.61166 0.816406 6.80361 0.816406 5.99556C0.816406 5.18751 0.928635 4.35702 1.19798 3.59386C1.42244 2.92049 1.78157 2.292 2.27538 1.75331C2.76919 1.21461 3.37523 0.810584 4.02615 0.563681C5.57491 0.00253613 7.25834 0.00253613 8.8071 0.563681C9.48048 0.810584 10.0641 1.23705 10.5354 1.75331C11.0068 2.292 11.3659 2.92049 11.6128 3.59386C11.8597 4.35702 11.9944 5.16507 11.9944 5.97311C11.9944 6.51181 11.9495 7.07296 11.8373 7.61166C11.7475 8.12791 11.5679 8.62172 11.3435 9.07063C11.119 9.51955 10.8048 9.94602 10.4456 10.3052C10.0641 10.6867 9.61515 11.0234 9.12134 11.2703L11.7026 13.874H8.94178ZM6.42785 1.93287C5.9116 1.91043 5.41779 2.0451 4.96888 2.31445C4.56485 2.53891 4.22816 2.8756 3.98126 3.25717C3.71191 3.6612 3.53235 4.11011 3.42012 4.58148C3.19566 5.56909 3.19566 6.57915 3.42012 7.56676C3.53235 8.03813 3.71191 8.48704 3.98126 8.89107C4.22816 9.27264 4.56485 9.58688 4.96888 9.81134C5.41779 10.0582 5.9116 10.1705 6.42785 10.148C6.9441 10.1705 7.46036 10.0358 7.90927 9.81134C8.3133 9.58688 8.64998 9.2502 8.89689 8.86862C9.14379 8.4646 9.3458 8.01568 9.43559 7.54432C9.66004 6.5567 9.66004 5.54664 9.43559 4.55903C9.32336 4.11011 9.14379 3.6612 8.89689 3.27962C8.64998 2.89804 8.3133 2.5838 7.90927 2.35934C7.46036 2.06755 6.9441 1.91043 6.42785 1.93287Z" fill="#008FBB"/><path d="M14.5083 0.339279H16.7978V11.7193H14.5083V0.339279Z" fill="#008FBB"/><path d="M18.6831 0.339279H21.0848L23.1723 9.45227H23.1947L25.125 0.339279H28.2226L30.2202 9.45227H30.2427L32.375 0.339279H34.5747L31.5894 11.7193H28.6715L26.6514 2.6063H26.6065L24.6088 11.7193H21.6908L18.6831 0.339279Z" fill="#008FBB"/><path d="M39.3781 0.339279H41.9594L46.4261 11.7193H43.8897L42.9246 9.11558H38.3007L37.3131 11.7193H34.9563L39.3781 0.339279ZM40.6575 2.62875H40.6351L38.9965 7.31992H42.3185L40.6575 2.62875Z" fill="#008FBB"/></svg>