<svg version="1.2" xmlns="http://www.w3.org/2000/svg" viewBox="0 0 295 283" width="295" height="283"><title>suaid_bank</title><style>.s0 { fill: #221f20 } 
		.s1 { fill: #235541 }</style><g><g id="Layer_2"><g><g><path class="s0" d="m-445.2 192.4c-4.7-2.4-7.1-4.3-7.1-8 0-3.7 1.5-5.8 5.6-5.8 4.1 0 6.8 3.8 7.7 7.4v0.3l2.4-0.5v-0.3c-0.4-3.3-0.7-5.5-0.9-7.5v-0.9h-0.3c-0.3 0-0.6-0.2-0.9-0.2-1.5-0.3-4.1-0.9-6.8-0.9-6.1 0-12.3 3.5-12.3 10.3 0 6.8 3.4 8.3 9.6 11.7 4.8 2.6 7.1 4.3 7.1 8.5 0 4.2-2.5 6.1-6.2 6.1-5.6 0-8.2-4.8-9.4-8.8v-0.3l-2.4 0.6v0.3c0.4 2.9 1.1 7.3 1.6 8.9 0 0.1 0.2 0.2 0.2 0.2 2.5 0.9 5.5 1.9 9 1.9 7.6 0 13.1-4.7 13.1-11.1 0-6.4-3.4-8.4-10-11.9z"/><path class="s0" d="m-407.6 210c-0.7 0.4-1.3 0.6-1.9 0.6-1.4 0-1.7-1.7-1.7-3.2v-10.8c0-3.1-0.9-5.2-3.1-6.9-1.4-1.1-3.2-1.6-5.2-1.6-3.6 0.8-7.1 3.1-8.5 4-1.2 0.9-2 1.6-2 2.6 0 1.6 1.6 2.9 3 2.9 1.4 0 1.8-0.5 2.1-1.7 0.5-1.6 0.9-2.8 1.4-3.6 0.7-0.8 1.4-1.2 2.4-1.2 2.8 0 4.5 2.2 4.5 5.8v1.2c-1.3 1-5.1 2.3-8.2 3.4l-0.7 0.2c-3.3 1.2-4.8 3.1-4.8 6 0 2.9 2.8 7.4 7.4 7.4 4.6 0 3.9-1.6 6-3.1 0.2-0.1 0.4-0.3 0.6-0.4 0.3 0.8 0.6 1.5 1.3 2.2 0.6 0.7 1.9 1.2 3.1 1.2l5.4-3.1-0.8-2.2-0.3 0.2zm-13.5-7.1l0.6-0.3c1.2-0.5 2.8-1.3 3.9-1.8v8.4c-1 1-2.7 1.7-4 1.7-1.3 0-3.7-1.1-3.7-4.1 0-3 1.3-3 3.2-3.9z"/><path class="s0" d="m-380.2 207.6v-19.4h-0.3c-1.7 0.4-5.7 0.9-9.3 1.1h-0.3v2.1l2 0.3c1.7 0.3 2.3 0.5 2.3 3.4v13.3c-1.7 1.6-3.5 2.4-5.5 2.4-2 0-4.7-0.8-4.7-5.9v-7.9c0-3.7 0-6.5 0.2-8.4v-0.4h-0.3c-1.8 0.3-5.9 0.9-8.6 1h-0.3v2l1.8 0.4c1.2 0.3 1.7 0.4 1.7 3.4v11.2c0 7.9 5.2 8.8 7.5 8.8 2.3 0 5.5-1.7 8.3-4v4.1h0.4c3.4-1.1 6.5-1.7 9.1-2.1h0.2v-2.2h-1.8c-1.9-0.2-2.3-0.4-2.3-3.2"/><path class="s0" d="m-348 207.4v-34.6h-0.4c-2.3 0.9-6.4 1.7-9.3 2.1h-0.3v2.1h0.3c3.8 0.4 4.1 0.4 4.1 3.8v7.7c-1.4-0.4-3.1-0.4-3.3-0.4-8.4 0-15.3 6.4-15.3 14.2 0 7.8 6.5 12.9 11.1 12.9 4.6 0 1.9-0.2 4.4-1.6 0.5-0.3 1.1-0.7 1.8-1.1 0.4-0.3 0.9-0.5 1.3-0.8v3.5h0.4c3.1-1.2 6.8-1.8 8.6-2.1 0.3 0 0.5 0 0.6-0.1h0.2v-2.2h-2c-1.9-0.3-2.3-0.5-2.3-3.4m-5.5-13.8v15.5c-1.2 0.9-3.1 1.7-4.9 1.7-3.6 0-7.5-3.7-7.5-10.3 0-6.6 5.8-9.7 7-9.7 2.3 0 4.4 1 5.4 2.7"/><path class="s0" d="m-332.9 207.9v-20.1l-0.4 0.2c-2.5 1-5.4 1.8-8.5 2.2h-0.2v2h0.2c3.2 0.5 3.2 0.7 3.2 4.1v11.7c0 3.8-0.3 4-3.6 4.3h-0.3v2.2h13.5v-2.2h-0.3c-3.4-0.4-3.8-0.5-3.8-4.3"/><path class="s0" d="m-336 183.2c1.9 0 3.5-1.6 3.5-3.5 0-1.9-1.5-3.6-3.4-3.6-1.9 0-3.6 1.6-3.6 3.6 0 2 1.6 3.5 3.5 3.5z"/><path class="s0" d="m-285.6 204.1c-3.1 6.1-6.1 8.3-11.3 8.3-8.7 0-14.4-7-14.4-17.7 0-10.7 5.3-16.1 13.8-16.1 8.5 0 4.4 0.4 5.7 1 2.6 1.1 4.1 3.1 5.4 7.3v0.3l2.5-0.5v-0.3c-0.6-3.6-1-7.7-1.1-9v-0.2h-0.2c-0.4 0-0.9-0.2-1.6-0.3-2.2-0.4-5.4-1.1-9.3-1.1-13 0-22.1 8.3-22.1 20 0 11.7 6.5 19.4 21.1 19.4 14.6 0 8.1-0.9 10.1-1.3h0.6c0-0.1 0-0.3 0-0.3 0.9-1.8 2.3-5.9 3.2-8.8v-0.3l-2.2-0.8v0.2h-0.1z"/><path class="s0" d="m-265.6 188c-3.2 0-6.3 1.6-8.8 4.2-2.5 2.6-3.9 6.3-3.9 10.3 0 6.3 4 12.6 11.6 12.6 7.6 0 5.6-0.3 9.9-5.8v-0.2c0.1 0-1.1-1.8-1.1-1.8l-0.2 0.2c-2.1 1.9-4.2 2.8-6.4 2.8-2.2 0-4-0.8-5.4-2.3-1.8-1.8-2.7-4.4-2.7-7.7 6.2-0.2 13.7-0.7 15-1 1.1-0.3 1.2-1.1 1.3-2.2 0-2.4-1-4.8-2.7-6.6-1.7-1.8-4-2.7-6.4-2.7m-6.9 9.6c0.7-4 2.9-6.6 5.4-6.6 2.5 0 2.2 0.4 3 1.3 1 1.1 1.6 2.6 1.6 4.2 0 0.6-0.1 0.9-1.1 0.9-3.1 0.1-6.1 0.2-8.9 0.2z"/><path class="s0" d="m-225.3 208.1v-10.9c0-5.7-3-9.2-7.7-9.2-4.7 0-3.4 0.8-4.8 1.7-1.3 0.9-2.5 1.7-3.4 2.3v-4.3l-0.4 0.2c-2.3 1-5.2 1.8-8.4 2.3h-0.2v2.1h0.2c2.9 0.5 3.2 0.6 3.2 4.1v11.8c0 3.7-0.3 3.7-3.7 4.1h-0.3v2.2h13.1v-2.2h-0.3c-3.1-0.4-3.2-0.4-3.2-4.1v-13.3c2-1.7 3.9-2.6 5.7-2.6 3.1 0 4.7 2.1 4.7 6.2v9.5c0 3.9-0.3 4-3.2 4.3h-0.3v2.2h12.6v-2.2h-0.3c-3.1-0.4-3.3-0.4-3.3-4.1"/><path class="s0" d="m-204 210.3c-1.1 0.5-2.2 0.8-3.2 0.8q-3 0-3-5.1v-14.2h5.9c0.4-0.4 0.7-0.9 0.8-1.6 0-0.5 0-1.1-0.4-1.4h-6.2c0-2.8 0-6 0.2-8.3v-0.2l-1.2-0.3c-0.6 0.7-1.4 1.3-2.1 2-0.8 0.7-1.6 1.4-2.2 2v4.7h-2.4l-1.8 2 0.4 1h3.8v16.2c0 4.7 2.1 7.2 6.1 7.2 4 0 1.5-0.2 2.5-0.8l4.1-2.1-0.7-2.1h-0.3c0 0.1 0 0.1 0 0.1z"/><path class="s0" d="m-180.8 188c-2.6 0-4.9 2.5-6.9 5.5v-5.8l-0.4 0.2c-2.6 1.1-5.3 1.8-8.4 2.3h-0.2v2h0.3c3 0.4 3.2 0.4 3.2 4v12c0 3.6-0.3 3.7-3.6 4h-0.3v2.2h14v-2.2h-0.3c-4.2-0.4-4.4-0.5-4.4-4.1v-10.7c1.2-2.8 3.2-4.1 4.1-4.1 0.9 0 1.5 0.5 2.4 1.4 0.6 0.5 1.2 0.5 1.8 0.2 1.1-0.6 2.3-2 2.3-3.7 0-1.7-1.3-3.2-3.7-3.2"/><path class="s0" d="m-150.9 210c-0.7 0.4-1.3 0.6-1.9 0.6-1.4 0-1.7-1.7-1.7-3.2v-10.8c0-3.1-0.9-5.2-3.1-6.9-1.4-1.1-3.2-1.6-5.2-1.6-3.6 0.8-7.1 3.1-8.5 4-1.2 0.9-2 1.6-2 2.6 0 1.6 1.6 2.9 2.9 2.9 1.3 0 1.8-0.5 2.1-1.6 0.5-1.7 0.9-2.9 1.5-3.6 0.7-0.8 1.4-1.2 2.4-1.2 2.8 0 4.5 2.2 4.5 5.8v1.2c-1.3 1-5.1 2.3-8.2 3.4l-0.7 0.2c-3.3 1.2-4.8 3.1-4.8 6 0 2.9 2.8 7.4 7.4 7.4 4.6 0 3.9-1.6 6-3.1 0.2-0.1 0.4-0.3 0.6-0.4 0.3 0.8 0.6 1.5 1.3 2.2 0.6 0.7 1.9 1.2 3.1 1.2l5.4-3.1-0.8-2.2zm-13.6-7.1l0.6-0.3c1.2-0.5 2.8-1.3 3.9-1.8v8.4c-1 1-2.7 1.7-4 1.7-1.3 0-3.7-1.1-3.7-4.1 0-3 1.3-3 3.2-3.9z"/><path class="s0" d="m-139.4 208.1v-35.3h-0.4c-1.9 0.8-5.6 1.7-8.8 2.1h-0.3v2.1h0.2c3.4 0.5 3.6 0.7 3.6 4v27.1c0 3.6-0.3 3.8-3.7 4.1h-0.3v2.2h13.5v-2.2h-0.3c-3.5-0.4-3.7-0.6-3.7-4.1"/><path class="s0" d="m-103.4 193.9c3.5-1.1 6.8-3.9 6.8-8.5 0-4.6-1.2-5.1-3.5-6.6-2.1-1.4-5-2-9-2h-15.7v2.2h0.3c4.5 0.4 4.8 0.8 4.8 5.3v22.7c0 4.5-0.3 4.8-4.8 5.2h-0.3v2.3h14.7c4.3 0 7.3-0.7 10.2-2.3 3.6-2 5.7-5.3 5.7-9 0-3.7-3.2-7.9-9.1-9.2m-5.7 17.7c-2 0-3.1-0.3-3.8-1-0.7-0.7-1-1.9-1-4v-11.2h2.3c7 0 10.5 2.6 10.5 8 0 5.4-4.3 8.1-8.1 8.1m-2.2-18.6h-2.5v-10.6c0-1.6 0.1-2.2 0.5-2.5 0.5-0.4 1.5-0.5 3-0.5 4.6 0 7.4 2.5 7.4 6.8 0 4.3-2.6 6.8-8.3 6.8"/><path class="s0" d="m-65.7 210c-0.7 0.4-1.3 0.6-1.9 0.6-1.4 0-1.7-1.7-1.7-3.2v-10.8c0-3.1-0.9-5.2-3.1-6.9-1.4-1.1-3.2-1.6-5.2-1.6-3.6 0.8-7.1 3.1-8.5 4-1.2 0.9-2 1.6-2 2.6 0 1.6 1.6 2.9 3 2.9 1.4 0 1.8-0.5 2.1-1.7 0.5-1.6 0.9-2.8 1.4-3.6 0.7-0.8 1.4-1.2 2.4-1.2 2.8 0 4.5 2.2 4.5 5.8v1.2c-1.3 1-5.1 2.3-8.2 3.4l-0.7 0.2c-3.3 1.2-4.8 3.1-4.8 6 0 2.9 2.8 7.4 7.4 7.4 4.6 0 3.9-1.6 6-3.1 0.2-0.1 0.4-0.3 0.6-0.4 0.3 0.8 0.6 1.5 1.3 2.2 0.6 0.7 1.9 1.2 3.1 1.2l5.4-3.1-0.8-2.2-0.3 0.2zm-13.6-7.1l0.6-0.3c1.2-0.5 2.8-1.3 3.9-1.8v8.4c-1 1-2.7 1.7-4 1.7-1.3 0-3.7-1.1-3.7-4.1 0-3 1.3-3 3.2-3.9z"/><path class="s0" d="m-38.2 208.1v-10.9c0-5.7-3-9.2-7.7-9.2-4.7 0-3.4 0.8-4.8 1.7-1.3 0.9-2.5 1.7-3.4 2.3v-4.3l-0.4 0.2c-2.3 1-5.2 1.8-8.4 2.3h-0.2v2.1h0.2c2.9 0.5 3.2 0.6 3.2 4.1v11.8c0 3.7-0.3 3.7-3.7 4.1h-0.3v2.2h13.1v-2.2h-0.3c-3.1-0.4-3.2-0.4-3.2-4.1v-13.3c2-1.7 3.9-2.6 5.7-2.6 3.1 0 4.7 2.1 4.7 6.2v9.5c0 3.9-0.3 4-3.2 4.3h-0.3v2.2h12.6v-2.2h-0.3c-3.1-0.4-3.3-0.4-3.3-4.1"/><path class="s0" d="m-3.4 212.2c-2.1-0.2-2.9-0.3-5.4-2.9-1.7-1.8-7.2-8.3-8.6-10.3 1.3-1.6 3.5-4.1 4.5-5.1 2.4-2.5 3.6-2.9 7.4-3.5h0.2v-2.2l-12.4 0.5v2.2h0.3c0.9 0 2.1 0.3 2.3 0.7 0.2 0.4 0 0.6-0.5 1.2-0.9 1.4-3 3.9-4.3 5.2-0.9 0.9-1.8 1.5-3.1 1.9v-27.1h-0.4c-2.5 1-5.9 1.8-8.8 2.1h-0.3v2h0.2c3.3 0.6 3.6 0.6 3.6 4v27.1c0 3.5-0.2 3.8-3.7 4.1h-0.3v2.2h13.4v-2.2h-0.3c-3.5-0.4-3.6-0.5-3.6-4.1v-6.1q0.5 0 0.6 0c0.4 0 0.6 0.2 1.4 1.1 0.2 0.3 5 6.1 7.5 9.3 1 1.1 1.6 2 1.7 2.1h0.1c1.3 0 4.7-0.1 8.2-0.1h0.3v-2.2h-0.3z"/><path class="s0" d="m-270.9 72.6c-0.4 0.5-0.8 0.8-1.2 1.3-0.5 0.5-0.7 0.8-1.3 1.3-1 0.9-1.9 1.6-2.9 2.4-0.9 0.7-5.7 4.2-5.9 4.8 1.6-0.3 6.1-3.1 7.3-4 1.2-0.9 3.8-3.4 4.6-4.7 0.2-0.4 0.2-0.4 0.5-0.8 0.7 0.4 0.9 0.4 1.5 0.9 0 0 0.8-1.5 0.8-2 0-0.7-0.9-1-1.6-1.3 0-1.3 0.6-2.9-0.1-4.2-1.1-2.2-4.8 1.3-4.4 3.9 0.1 0.8 0.7 1.1 1.1 1.5 0.2 0.2 0.5 0.4 0.8 0.5 0.1 0 0.3 0 0.4 0.2l0.4 0.3zm-1.4-3.7c0.3-1.2 2.5-1.8 2.1 1.1-0.5 0.3-1.8-0.5-2.1-1.1zm68.2 15.8c0.9-0.8 2.4-4.3 1.3-5.7-1.2-1.5-4.6-0.6-6.2 0-3.4 1.3-7.4 3.9-9.9 5.8-2.4 1.7-6.6 5-8.6 7.3-2.5 3-9.6 12.5-1.7 14.7 5.8 1.6 16.1 0.4 21.9-0.1 9.5-1 19.1-2 28.7-2.8 5.5-0.4 12.4-0.7 16.1 3.2 0.2 0.2 1.8 1.9 1.5 2.2-0.2 0.4-6 0.8-6.8 0.9-14.2 1.7-28 3.7-42.1 5.3-6.6 0.7-23.3 1.7-29.1-0.8-2.6-1.1-4.9-3.2-6.3-5.5-0.4-0.6-1.1-2.2-1.3-2.4-0.5 0.2-0.7 0.6-0.9 1.3-0.8 2.7-0.8 3.4 0 5.2 0.9 1.8 1.9 4 2.4 6.1 0.7 3 0.5 3.3-2.1 5.7l-4.8 3.7c-3.6 2.5-13.9 8.8-18.1 4.3-1.4-1.5-2.7-3.4-2.6-5.8 1.1-0.3 2.5-1.2 3.5-1.7 2.5-1.2 7.3-4.3 9.4-6.2 1.6-1.5 3.4-3.5 3.4-6.9 0-3.4-1.9-4.4-5.1-5.3-2.7-0.8-5.6-1.1-8-2.3-1.2-0.6-2.5-1.2-1.7-3 1.3-2.8 4.5-6.7 6.8-8.6 5-4 5.4 0.3 6.1 0.9 0.8-0.2 1.4-1.7 1.5-2.8 0.3-2.5-0.7-5.4-3.4-5-1.6 0.2-3 1.4-4.1 2.2-0.5 0.4-0.7 0.6-1.1 1-2.3 2.1-4 4.4-5.5 7.1-1 1.7-1.9 4-2.3 6.2-0.6 3.3-0.4 4.9 1.6 6.5 2.9 2.3 10.7 2.3 12.7 4.2 0.4 0.8-2.2 2.3-2.7 2.7-1.1 0.7-2.1 1.3-3.3 2-1.4 0.9-5.6 3.2-7.2 3.6 0.2-1.3 1.2-3.9 1.1-5-1.1 0.5-1.8 4.8-2.2 5.4-0.3 0.4-2.2 1-2.7 1.1-5.5 1.9-13.6 3.1-17.3-1.9-5.9-7.9 1.2-17.8 1.4-20.4-0.5 0-0.7 0.4-1 0.8-0.3 0.4-0.5 0.7-0.7 1.2-5.2 8.7-6.8 26.3 7.1 27.2 5.4 0.4 8.3-1.4 12.4-2.6-0.3 5.2 1.3 9.7 5 11.2 4.6 2 11.4-1.6 15.1-4 3.8-2.5 8.2-5.9 10.3-10 1.3-2.7 0.8-3.9 1.1-6.9 0.8 0.3 1.6 0.8 2.5 1.2 0.9 0.4 1.8 0.7 2.7 1 5.4 1.4 15 1.3 20.5 0.8 8.8-0.8 17.5-2 26.2-3.2 9.7-1.3 19.6-2.7 29.1-3.9 1.6-0.2 1.6-0.3 2.3-1.4 3.7-6-0.5-10.9-6.1-12.9-4.5-1.6-8.3-1.4-13.2-1-4.4 0.3-9 0.8-13.3 1.3-8.9 1.1-25.4 3.2-33.9 1.8-1.1-0.2-5.3-0.9-4.5-2.6 0.5-1.2 5.8-5.9 7.5-7.2 2.7-2.1 5.3-4.1 8.7-6 9.6-5.4 8.5-1.8 10.1-1.4m-69.2-4c-0.3 0.2-0.1 0-0.3 0.4-0.3 0.6-0.3 2.7-1.4 3.5-0.5 0.4-1.6 0.7-2 0-0.4-0.7 0-1.8 0-2.6-1.6 0.8-2.5 7 1.5 5 4-2 0.6-0.4 1-0.7 0.6-0.4 0.7-0.2 1.4-0.2 3.7 0 5.2-5.6 3.7-7.2-0.4 0.3-1.1 1.5-1 2.1 0.3 0.8 1.3 1.9-1.2 2.7-0.2 0-0.5 0.1-0.7 0.1-0.6 0-0.4 0-0.6-0.3-0.4-0.9 0.4-2.2-0.4-2.8zm-185.3 19.7l-0.2 1.7c-0.4 3.1 0.8 4.7 2.2 4.3-0.4 0.7-0.7 1.5-0.9 2.3-1 2.8-1.5 5.5-1.6 8.6-0.2 5.9 1.4 11.2 7.2 13.4 7.5 2.9 20.3-3.1 26.6-7.7 0.5-0.4 1-0.6 1.5-1.1 0.3-0.2 0.5-0.4 0.7-0.6l0.8-0.6c-0.3 1.4-0.8 2.8-1.1 4.3-0.7 3.9-1.1 10.6 3.2 11.9 3.1 0.9 6-1.1 8.1-2.2 1.4-0.7 5.6-3.6 6.5-4 0.3 0.5 0.6 2.1 1.1 2.9 4 7.5 13 4.1 18.3 0.3 3.3-2.5 7.6-6.1 10.1-9.3 1.8-2.3 3-5.4 3.1-8.4 0.9-0.5 3-1.3 4.1-1.8l10.8-4.7c-1.1 3.2-2.6 8.5-1.6 11.8 0.4 1.1 1.1 2.1 1.9 2.6 3.1 2 7.6 0.5 10.3-1.7 1.9-1.6 3.6-4.6 4.7-4.4 0.5 1.3-0.2 3.1 1.9 4.9 1.2 1.1 3.8 1.3 5.6 0.9 1.8-0.4 3.3-1.6 4.4-2.5 2.8-2.7 1.9-2.3 3-3.5 0.3-0.3 0 0 0.4-0.3 0.4 3.4 2 6.3 6 5.6 1.7-0.3 2.8-1.3 3.6-2.3 0.4-0.6 0.8-1.1 1.1-1.8 0.3-0.6 0.6-1.4 1-1.9 0.8 1 1.1 3.6 3.6 4.8 2.6 1.2 4.6 0.2 6.1-1.2 2.7-2.4 4.2-7.8 4.3-12.6 0-6.4-1.1-20.6-1.7-28.2 0-1.1-0.3-2.9-0.2-4 0.7 0.3 1.1 1.6 2.4 1.8 0.2-1.5-1.3-4.7-1.8-6.1-0.4-1.1-1.8-5.2-2.4-5.8-0.6 0.3-1.1 2.3-1.4 3-0.8 2.1-0.2 1.7 0.1 3.5 0.2 1 0.4 6.8 0.5 8.4 0.3 5.6 0.8 11.5 1.2 17.1 0.2 3.2 1.3 14.4 0.4 16.8-0.3 0.8-1.7 1.5-2.5 1.9-2.2 1-5.1 0.8-6.2-1.6-0.7-1.6 0-2.9-0.4-3.8-0.9 0-1 0.8-1.5 1.5-1.1 1.8-2.4 3.9-4.7 4.8-2 0.8-3.5 0.5-4.6-0.8-2-2.6 0-3.6-0.6-4.8-1.2 0.1-3.8 5.2-8.3 6.5-2 0.6-4.5 0.5-6.1-0.5-2.8-1.8-0.7-4.8-1.4-5.4-1.1-1-4.4 4.9-8.9 6.5-1.9 0.7-4.7 1.1-6.7 0.4-4.1-1.5-0.8-7.7-0.3-10.3l7.9-3.4c1.3-0.6 3-1.1 3.6-2.1 0.5-0.8 1.9-3.1 1.8-3.9-1.3 0-9.8 4.1-12.8 4.8-4.2 0.9-6.8-0.4-9.9-2.7-2-1.5-4.9-5.4-5.2-8 0-1.1 1.3-1.7 2.3-2.1 4.2-1.8 10.6-2.5 15.2-1.8 1.1 0.2 2.7 0.7 3.7 0.7-0.2-0.6-0.4-0.7-0.9-1.1-1.1-0.8-2.2-1.5-3.4-2.1-3.7-1.7-8.5-2.3-12.3-0.8-7.9 3.1-9 12.2-3.1 18.8 0.6 0.7 3 2.7 4.2 3.1-0.1 0.1 0 0-0.3 0.2-0.5 0.3-1.1 0.5-1.6 0.7-0.6 0.3-1.3 0.5-1.9 0.8-1.3 0.5-2.6 1.2-4 1.4-0.3-1-1.4-2.6-2-3.4-6.4-9.3-13.9 5-9 8.1 2.5 1.5 6.2 1.1 9 0.5 0.5 2.7 0 2.6-1.3 4.2-0.7 0.9-2 2.3-3 3l-3.2 2.7c-3.5 2.6-7.5 5.4-12 6.1-3.9 0.6-7.3-0.8-8.5-3.4 0.1-0.2 0 0 0.3-0.3 0.2-0.2 0 0 0.2-0.2l5.6-4c2.2-1.7 3.6-2.9 4.2-6.2 0.4-2 0.3-4.3-0.4-6.1-0.7-1.7-2-2.5-3.6-3.4-1.5-0.8-3.1-1.5-4.7-2.3-2-1-7.4-3.8-8.4-5.5 1 0 2.4 0.2 3-0.4-0.2-1-2.8-1.9-3.8-2.4-0.7-0.4-1.4-0.6-2.1-1-0.4-0.2-0.7-0.4-1-0.5-1.3-0.7-1 0.6-1 1.6 0 3.8-0.3 2.6 1.5 4.1 0.8 0.6 1.1 1.3 1.7 2 1.1 1.4 2.4 2.6 3.9 3.7 0.4 0.3 0.7 0.5 1.1 0.8 0.3 0.2 0.7 0.5 1.1 0.7 1.6 0.9 3.2 1.7 4.9 2.5 1.3 0.6 8.6 3.7 6.5 5.8-0.8 0.8-8.5 6.2-9.8 6.8 0-3.4 1.8-7.1 1.8-9.5-0.5 0.2-0.5 0.5-0.8 1.1-0.2 0.4-0.3 0.8-0.5 1.2-0.3 0.8-0.6 1.7-0.8 2.5-0.5 1.9-0.8 3.6-1 5.6-0.5 0.2-1.3 0.8-1.9 1.1-1.9 1.1-3.9 2.4-5.9 3.3-2.7 1.2-6.9 3-8.6-0.6-0.7-1.5-0.4-3.7-0.1-5.3 0.2-0.9 0.9-4.4 1.2-4.9 0.2-0.3 0.4-0.4 0.7-0.8 0.2-0.3 0.4-0.5 0.7-0.9 1.2-2 2-5 0.9-7.2-1.4-3.1-9.4-3.2-13.1-5.3-1.9-1.1-1.7-2-0.6-3.9 1.4-2.6 3.3-4.9 5.5-6.8 0.3-0.3 0.4-0.5 0.8-0.7 0.4-0.2 0.5-0.4 0.9-0.6 0.5-0.4 1.3-0.8 2.1-1 2.4-0.5 2.4 2 3.2 2.5 0.8-0.3 1.4-1.7 1.5-2.8 0.2-1.3 0-2.7-0.6-3.7-3.8-5.5-14.5 7.2-15.9 15.5-0.5 3.2-0.3 4.8 1.8 6.3 2.7 2 12.6 2.8 12.7 4.4-0.5 1.6-9.2 6.3-11.6 7.4-4.2 1.9-9.5 4-14.9 3.9-5.6-0.1-9.3-3.6-10-8.8-1-6.7 3.2-12.6 3.5-15.1q0.3-1.1 0.6-2.4c-0.6 0.4-0.5 0.5-1.1 1.4-0.4 0.6-0.6 1.1-1.3 1.3-1.9 0.5-1.7-2.4-1.5-4 0.4-3.7 2.5-7.2 3.4-10.4l-0.8 1.1c-1.7 2.9-3.7 7.7-4.1 11.1m80.2 12c-1.2 0.2-2.6 0.4-3.9 0.2-1-0.2-2.5-1.1-1.5-2.1 1.1-1.2 3.9-0.6 5.4 1.9zm268.5 8.1c-3.5 0-6.2 0-9.3-1.9-1.3-0.8-3.8-2.9-3.8-5.2 0-5.2 2.3-7.3 2.1-9.3-0.8 0.3-1.9 3-2.3 4.1-1 2.6-1.1 4.3-1.1 7 0 6.4 5.2 10.7 11.6 10.7h1.8c6.8 0 14-4.2 19.2-7.4 1.1-0.7 2-1.6 3-2.4 3.4-2.6 3.5-5.8 4.1-6.7 0.4 4.4 0.4 13.1 7 13.1 6.6 0 2.8 0 4.3-1.2 1-0.8 1.5-1.2 2.2-2.3 0.7-1 2.8-4.9 3.4-5.4 1.1 1 0.7 4.3 6.3 7.2 7 3.6 17.2 2.5 24.5 0.2 2.1-0.7 5.4-1.8 7.4-2.8 0.7-0.3 1.7-1.1 2.4-1 0.4 1.9 0.4 2.6 1.6 3.8 1.1 1.1 2.7 1.4 4.6 1.4 2.8 0 5.1-3 6-5 2.7-6.3 2-12.2 1.5-19l-1-14.2c-0.2-2.1-0.7-5.9-0.4-7.9 0.4 0.2 2.4 2.9 2.4 1.2 0-1.7-3.6-10.8-4.3-11.4-0.5 0.3-1.7 3.5-1.8 4.2 0 0.7 0.4 1.7 0.5 2.5 0.2 0.9 0.2 1.8 0.2 2.8 0 5.5 1 16.9 1.5 22.7 0.2 1.9 0.3 3.7 0.4 5.6 0.2 3.4 0.4 4.8 0.4 8.2 0 3.4-0.2 2.7-1.5 3.5-2.1 1.4-5.9 2.1-7.4 0-0.9-1.2 0-2.8-0.3-4-0.6 0-4 1.7-4.9 2-5.6 2.2-11.1 3.6-17.4 3.9-4.1 0.2-9.3 0.1-12.6-1.5-2.4-1.2-4.8-2.5-5.6-5-0.3-1-0.2-2.4-0.5-3-0.9-0.2-1 0.4-1.4 1-3.1 4.2-4.5 8-9.8 8-5.3 0-4.6-6.1-4.9-10.2-0.3-4.8-0.3-9.7-0.5-14.5-0.2-4.8-0.4-9.3-1.1-13.9-0.5-3.2-1.6-9.9-2.7-12.4-0.6 0.3-0.6 0.8-0.8 1.8-0.7 3.7-0.6 3.2 0 6.8 1.7 10.7 2 17.8 2.2 28.9 0 3.9-0.6 4.8-3 7.3-1.1 1.2-4.8 3.5-6.1 4.2-3.9 2.1-10.4 5.2-15.7 5.2m-29.4-13.1c-1.2 1.2-8.3 4.6-11.1 2.6-1.1-0.8-1.1-2.2-2-3-0.6 0.5-1 2.5-1.3 3.5-0.4 1.5 0.5 2.6 1 3.8 0.6 1.4 2.4 6.5 1.7 8-0.1 0.3-0.9 1.1-1.1 1.4l-4.1 3.4c-3.8 2.9-8 5.8-12.7 7.2-3.4 1-5.6 0.8-7.6-1.2-1.7-1.7-2.7-4.3-2.3-7.5 0.3-2.8 1.7-7.3 1.7-8.3-0.5 0.2-0.6 0.6-1 1.5-1.8 4.4-3 10.6-1.5 15.1 4 12.6 19.1 2.5 25.3-3 4.6-4.1 5-8.4 5-15.1 2.2 0.4 4.5-0.3 6.2-1 2.1-0.8 4-2.1 5-2.5 1.5 4.3 8.9 9.4 10.9 2.5 0.9-2.9 0-6.3-1.5-8-1.5-1.6-3.7-1.5-5.9-1-0.7 0.2-1.4 0.5-2 0.6-1.8-2.7-3.1-25.7-3.1-30.6 0.5 0.2 0.3 0 0.6 0.5 0.2 0.2 0.3 0.4 0.5 0.5 0.3 0.4 0.7 0.8 1.2 0.8 0.4-1.1-2.9-9.1-3.8-11.2-0.2-0.4-0.1-0.4-0.4-0.6-0.6 0.4-1.7 3.8-1.8 4.3 0 0.6 0.4 1.6 0.5 2.4 0.2 0.9 0.2 1.9 0.2 2.8 0.1 7.9 0.9 19.4 2.3 27.2 0.3 1.4 0.6 3.8 1 5m4.9 3.3c1.1-0.2 2.2-0.4 3.2 0 0.9 0.3 1.7 0.7 1.6 1.7-0.9 0.8-3.5 0.4-4.8-1.6m128.1 5.5c0 2.5-0.4 5.5-0.3 7.3 0.8-0.4 1.8-3.9 2.1-5.2 1.3-5.6 0.7-10.5 0.3-16.2l-1.2-16.9c0-1.5-0.6-7.6-0.5-8.6 0.7 0.3 2.4 2.8 2.4 1.5 0-1.3-1.5-4.7-1.9-5.9-0.4-1.1-1.8-5.2-2.4-5.6-0.6 0.4-1.9 3.9-1.8 4.9 0.1 1 0.5 1.5 0.7 2.8 0 1.1 0 2.2 0.1 3.3 0.3 4.4 0.6 8.6 0.8 12.9 0.3 4.2 0.6 8.5 0.9 12.7 0.2 3.3 0.8 10 0.8 13zm-286.1-45.6c0 0.3 0.5 1.7 0.6 2.3l0.5 8.5c0.2 3.8 0.5 7.6 0.8 11.3 0.3 3.8 0.5 7.5 0.8 11.4 0.3 3.7 0.8 9 0.7 12.6 0 1.9-0.4 4.4-0.3 6.1 0.5-0.2 0.5-0.4 0.8-1.1 3-7 2.1-13 1.6-20.3l-1.2-16.9c-0.1-1.7-0.7-7.3-0.5-8.5 0.7 0.2 1.2 1.8 2.4 1.8 0-1.7-2.2-7-3-9.1-0.3-0.8-0.8-2.4-1.3-2.8-0.5 0.4-1.8 3.7-1.8 4.6m175.5 37.6c0 2.6-0.4 6.3-0.3 7.8 1.6-0.8 2.9-8.8 2.9-11.2l-1.8-28.9c0.9 0.4 1.4 1.8 2.4 1.8 0.4-1-2.3-7.4-2.9-9-0.3-0.7-0.8-2.5-1.3-2.9-0.6 0.4-1.5 3.1-1.8 4.1-0.2 0.9 0.3 1.5 0.5 2.4 0.2 0.8 0.2 1.8 0.2 2.7 0.1 6.1 1 15.7 1.4 22.1 0.3 3.6 0.7 7.7 0.7 11.2m-85.2-15c0.7-0.2 1.8-1 2.5-1.4 0.8-0.5 1.7-0.9 2.5-1.4 5.6-3.2 20-10.8 25.2-13.1 2.5-1.1 5.2-2.5 7.8-3.7 0.8-0.3 0.7-0.2 0.8-1.1 0-0.6 0.2-1.1 0.3-1.8-1.5 0.3-18.3 8.6-20.8 9.9-3.7 1.9-14.2 7.5-17.2 9.6-0.6 0.4-0.9 1.9-1 2.9m146.4 18.1l7.7-4.3q2-1.1 3.9-2.1c1.1-0.6 2.8-1.6 4-2-1.2 2.7-2.4 4.7-2.3 8.3 0 3.7 3.4 3.4 4-1.6-0.6 0.2-1.2 2.7-2.5 1.5-1.3-1.3 0.3-5.8 0.8-7.4 0.4-1.2 0-0.8 2.6-2.2 1.1-0.6 11.5-5.7 12.6-6l0.4-2.1c-0.9 0.2-7.2 3.2-8.4 3.9-6.8 3.3-11.6 5.9-18.1 9.5-0.6 0.4-1.3 0.8-1.9 1.1-1.8 0.9-2.4 1-2.8 3.4zm-47.7-4.5c-0.5 1-2.6 1.8-3.8 2.4-0.5 0.3-3.9 1.7-4 2.3 1.7 0.3 4.2-0.4 5.8-0.8 1.9-0.4 2.2-0.9 3.6-3.2 4.3-6.7-2-4-4.5-5.8 0-1 1.4-2.2 2.2-2.6 1.1-0.7 0.8 0.4 1.5 0.4 0.6 0 1-0.8 1.2-1.2 1.7-4-1.2-5.6-5.6 1-1.1 1.7-3.1 5.6-0.5 6.8 1.4 0.7 3.1 0.3 4.1 0.7zm55.5-30.3c-0.3-0.5-0.3-1.4-0.5-1.9-0.5-1.7-1.6-3.9-3.6-3.9-0.5 0.9-1.9 2.2 0 3.3 0.9 0.5 0.8 0 1.4-0.1 0.6 0.5 2 4 2.2 5.3-0.5 0.4-0.7 0.6-0.9 1.4-0.2 0.6-0.4 1.5-0.2 2 0.2-0.2 0.8-1 0.9-1.1 0.3-0.2 0.4-0.2 0.8 0 0.1 0 0.2 0 0.3 0.2 0.3 0.2 0.1 0 0.3 0.3-0.7 0.4-2.3 0.5-2.8 2.5-0.4 1.4 0.1 3.2 0.4 4.6 0.3 1.5 0.6 2.9 0.8 4.4 0.1 0.9 0.2 4.6 0.4 5 0.8-1.1 0.5-5.3 0.3-6.8-0.3-2.1-0.8-4.2-1.4-6.1 0.7-1 2.7-1.4 3.9-1.7 0.7-0.2 0.7-0.3 1-0.9 0.5-1.2 0.3-1.7-0.5-2.4-1.4-1.2-1.9-1.2-2.4-1.5 0.8-2.6 0.7-2.7 1.2-4.8 1.1-4 1.9-1.7 2.7-1.4 1.7-1.1-0.6-5-2.3-2.3-1.3 2.2-1.2 5.1-1.8 6m-51.9-0.5c-0.3 0.4-0.9 0.9-1.3 1.3-1.8 1.7-5.4 4-7.7 5.4-0.8 0.5-2.7 1.6-3.1 2.2 0.9-0.1 3-1.1 3.9-1.5 1.3-0.6 2.5-1.1 3.6-1.9 4.7-3.2 4.3-4 5.6-5.2l1.1 0.6c0.1 1.5-1.8 5-1 7.8 0.9 2.9 3.8 1 3.7-2.8-0.5 0.5-1.1 2.5-2.3 1.8-1.5-1 0-5.5 0.4-6.9 0.7-2.1-0.3-2-1-2.8 2.3-10.1-7.3-2-3.5 1 0.7 0.5 1.1 0.6 1.6 1zm-1-4.1c2.5-1.7 2.1 1.2 1.9 1.7-0.4-0.1-0.8-0.3-1.1-0.5-0.5-0.3-0.8-0.4-0.8-1.1m-178.7 67.3c0.5-0.5 1.9-3 1.9-4.1-0.6-0.5-3.4-2.7-4.4-2.8l-1.5 3c-0.4-0.2-0.5-0.4-1-0.8-0.7-0.5-2.5-1.8-3.2-1.9-0.3 0.3-1.8 3.3-1.9 3.9 0.2 0.2 3.9 2.9 4.4 3 0.2-0.4 1.3-2.7 1.6-3 1.1 0.5 3.4 2.5 4.1 2.7zm125.8 1c0.8 0.2 4.8-0.9 5.8-1.2 2.6-0.6 3.3-0.7 5.4-1.9 3-1.7 5.7-3.6 6.9-6.8 0-0.1 0-0.3 0.2-0.4 0.1-0.3 0-0.2 0.2-0.3 0.4 0.4 3.1 2.8 4.2 1.8 0.6-0.5 1.3-3.2 0.1-4.9-1.9-2.6-3.3 0.7-3.5 0.9-0.6 0.5 0-0.9-1.4 1.6-0.4 0.7-0.8 1.6-1.2 2.1-4.2 4.5-15.2 7.9-16.7 9.1zm20.1-11.9c1.1-1.2 2.5 0 2.4 1.4-0.7 0-2.1-0.9-2.4-1.4zm-302.6 10.9c0.5-0.5 1.9-3 1.9-4.1-0.8-0.6-3.5-2.7-4.4-2.8-0.3 0.7-1.2 2.3-1.4 3-0.9-0.4-3.1-2.5-4.3-2.7-0.3 0.3-1.8 3.4-1.9 3.9 0.1 0.2 4 2.9 4.4 3 0.2-0.4 1.3-2.7 1.6-3 1.1 0.5 3.4 2.5 4.1 2.7zm67.2-7.2c-0.1 0.3-3.8 5.3-0.5 6.5 1.2 0.4 3.1 0 4.1-0.3 1-0.4 2.5-1.3 2.9-2-1.2 0.1-2.5 0.6-3.9 0.8-5.7 0.6-3.5-2.4-1.1-4.7 1.2-1.2 2.8-1.7 2.5-3.9-0.8 0.3-1.8 2.4-3.6 1.7-1.7-0.7-0.2-2 0.3-2 0.5 0 0.6 0.3 0.8 0.6 1-0.7 1.1-2.1 0.4-2.3-1.1-0.4-3.4 2.4-3.6 3.7-0.2 1.2 0.6 1.8 1.6 2.1m46.7-49.4l-2.5 2.6c-2 2-6.6 5.4-8.6 7.3 0.3 0.2-0.2 0.2 0.5 0l1.3-0.7c1.9-1.1 3.4-1.8 5.2-3.2 1.7-1.4 4.5-4.1 4.9-5.8 0.9 0 1.3 0.6 1.9 0.9 0.2-0.7 0.7-1.5 0.6-2.3-0.5-0.4-1.1-0.6-1.7-1.1 0.1-1.2 0.4-3-0.3-4.2-1.4-2.5-6.5 3.5-3.1 5.6 0.7 0.4 1.3 0.4 1.7 0.9m-1.3-3.8c0.2-0.7 0.9-1.1 1.7-1 0.4 0.6 0.5 1.1 0.4 2-0.7 0-1.8-0.6-2.1-1.1m-45.7-4.1c-0.4 0.5-0.8 0.8-1.2 1.3-0.5 0.5-0.7 0.8-1.3 1.3-1 0.9-1.9 1.6-2.9 2.4-0.9 0.7-5.7 4.2-5.9 4.8 1.6-0.3 6.1-3.1 7.3-4 1.2-0.9 3.8-3.4 4.6-4.7 0.2-0.4 0.2-0.4 0.5-0.8 0.7 0.4 0.9 0.4 1.5 0.9 0 0 0.8-1.4 0.8-1.9 0-0.5-0.9-1-1.6-1.3 0-1.3 0.6-2.9-0.1-4.2-1.1-2.2-4.8 1.3-4.4 3.9 0.1 0.8 0.7 1.1 1.1 1.4 0.2 0.2 0.5 0.4 0.8 0.5 0.1 0 0.3 0 0.4 0.2l0.4 0.3zm-1.3-3.7c0.3-1.2 2.5-1.8 2.1 1.1-0.5 0.3-1.8-0.5-2.1-1.1zm43 59.4v-0.3c0.1-0.4 0.3-0.3 0.3-1-0.8 0.1-1.2 1.3-1.8 1.8-1 0.8-1.9 0-2.9-0.2-2.7-0.5-5.2 1.9-6.8 3.5-4 4-4.9 3.5-5.9 4.3-0.2 0.1 0 0-0.2 0.2 3.7-0.3 5.2-2.9 7.6-4.6 3.5-2.5 4.9-1 6.3-0.9 1.3 0 2.4-1.1 2.7-1.1 0.4 0 0.9 0.5 1.5 0.5 1.7 0 2.3-3.2 1.6-4-1.1 0.5-0.7 1.9-0.7 2.2-0.6 0-1.2 0-1.7-0.3m101.1-55.3c-0.4-0.9-1-6.5-4.6-6.5-0.3 0.6-1.4 1.9-1 2.6 1.7 2.6 2.2 0 3.1 1.5l1 2.3c0.5 1.2 0.9 3.3 1.1 3.5 1.2-0.6 1.5-4 1.8-5.5 1.2-5.2 2.3-2.3 3.2-2 1.3-1 0.2-3.9-1.5-3.5-1.6 0.4-2.4 4.2-2.7 5.8-0.1 0.6-0.2 1.4-0.4 1.8zm31.3 58.4c-0.5-1.5-1.1-6.5-4.5-6.5-0.3 0.5-1.5 1.9-1.1 2.6 1.1 2 2.5 0.9 2.6 0.9 0.6 0.1 1.8 3.6 2.1 4.5 0.2 0.6 0.3 1.5 0.4 1.9 1.7-0.3 1.5-7.3 3.3-8.5 1.1 0 1 0.6 1.7 1 1.9-0.7-0.4-5.6-2.4-2.5-1.1 1.6-1.6 6.1-2.1 6.6zm-225.1 10.1c0.6-0.2 6.2-3.2 7.4-3.9l5.7-2.9c0.4-0.4 0.5-1.8 0.4-2.4-0.8 0.3-6.6 3.2-7.5 3.7-1.2 0.7-2.5 1.3-3.8 2-0.4 0.2-1.6 0.8-1.7 1.1-0.3 0.4-0.4 1.8-0.4 2.3m172.5-5.5c0.8-0.3 2.9-1.5 3.7-1.9l9.3-4.8c0.4-0.4 0.4-1.8 0.4-2.4l-7.5 3.7c-1.3 0.7-2.5 1.3-3.8 2-0.4 0.2-1.6 0.8-1.8 1.1-0.3 0.4-0.4 1.8-0.4 2.3m-191.3-57.9c-0.3 0.2-0.1 0-0.3 0.4-0.3 0.6-0.3 2.7-1.4 3.5-0.5 0.4-1.6 0.7-2 0-0.4-0.7 0-1.8 0-2.6-1.6 0.8-2.5 7 1.5 5 0.5-0.3 0.6-0.4 1-0.7 0.6-0.4 0.7-0.2 1.4-0.2 3.7 0 5.2-5.6 3.7-7.2-0.4 0.3-1.1 1.5-1 2.1 0.3 0.8 1.3 1.9-1.2 2.7-0.2 0-0.5 0.1-0.7 0.1-0.6 0-0.4 0-0.6-0.3-0.4-0.9 0.4-2.2-0.4-2.8zm118.3 15.6c-0.4 0.3-0.6 0.6-1.2 0.8-2.6 1.1-1.4-1.2-1.9-2.8-0.5 0.1-0.4-0.3-0.7 1.3-0.1 0.5-0.3 1.1-0.4 1.6-0.3 0.8-1.4 1.8-2.5 1.2-0.8-0.6-0.2-1.8-0.3-2.8-0.7 0.3-2 2.9-1.1 4.7 1.1 2.1 3.6-0.7 4.2-0.6 1.2 0 1.8 0.2 2.6-0.5 2.5-1.8 3-5.6 1.8-6.6l-0.3 0.4c0 0.2-0.2 0.3-0.2 0.4 0 0.2-0.4 0.7-0.4 0.8 0 0.4 0.4 1.2 0.4 2.1zm246.2-9.8c0 1.4 0.2 2.3 1.8 2.3 2.7 0 3.4-2.4 3.4-4.7 0-2.3-2-3.2-2.5-3.7 0.2-0.7 0.9-2.1 1-2.8-1-0.2-1.1 0.7-1.5 1.5-0.4 0.8-0.6 1.4-1 2.2-0.4 1.1-1.2 4-1.2 5.2zm4.5-1.4c-0.3 0.4-2.2 1.7-3.2 1.2-1-0.5 0-3 0.5-3.5 0.9 0.3 2.5 1.4 2.7 2.3zm-85 9.9c0 3.7 3.5 2.1 4.4 1.1 0.8-0.9 0.9-2.1 0.9-3.5 0-1.4-1.8-3.2-2.5-3.5 0-0.5 0.3-1.1 0.5-1.6 0-0.3 0.3-0.5 0.3-0.7 0.1-0.4 0.3-0.5 0-0.7-1.2-0.6-3.5 7.1-3.5 9m4.4-1.6c-0.5 1-2.5 1.8-3.2 1.4-0.8-0.5 0-2.9 0.5-3.5 1 0.4 2.2 1.2 2.7 2.1zm115.3 35c0.5 0.4 4 2.8 4.3 2.9 0.5-0.6 2-3.1 1.9-4.1 0-0.2-3.4-2.7-4.4-2.8-0.3 0.5-1.8 3.5-1.8 4zm-214-31c0.7 0.6 1.4 0.9 2.1 1.4 0.5 0.4 1.6 1.2 2.1 1.4 0.5-0.4 2.5-3.5 1.8-4.3-0.2-0.2-0.6-0.5-1-0.7-0.6-0.5-2.4-1.8-3.1-1.9-0.4 0.4-1.9 3.3-1.9 4m174.4 5.6l4.3 3c0.6-0.5 2-3 1.9-4.1-0.8-0.5-3.2-2.5-4.2-2.7-0.4 0.4-1.8 3.2-2 3.9m-323.1-18.2c-0.9 0.5-0.7 1.9-2 1.8-2.5-0.3 0.3-7.7 0.6-8.8-1.5 1.4-3.6 8.2-2.1 10.4 0.3 0.5 1.2 0.8 1.9 0.4 0.9-0.6 1.4-2.4 1.7-3.9"/><path class="s1" d="m-255.2 154.2c-0.5-1.6-1.1-3.3-3.4-3.3-2.3 0-2.5 1.1-2.5 2.5 0 1.4 1 2.3 3.1 3.4 2.8 1.4 4.3 2.6 4.3 5 0 2.4-2.4 4.9-5.8 4.9-3.4 0-2.9-0.4-4-0.8-0.2-0.6-0.5-2.9-0.7-4.1l0.9-0.2c0.5 1.6 1.8 4.1 4.2 4.1 2.4 0 2.6-1.1 2.6-2.6 0-1.5-0.9-2.4-3-3.5-2.6-1.4-4.2-2.6-4.2-5.1 0-2.5 1.9-4.5 5.5-4.5 3.6 0 2.9 0.4 3.4 0.4 0 0.9 0.3 2.1 0.4 3.7l-0.9 0.2z"/><path class="s1" d="m-242.8 166.3v-0.8c1.6-0.2 1.7-0.5 1.3-1.5-0.3-0.8-0.7-2-1.1-3.2h-5c-0.3 0.9-0.7 1.8-1 2.7-0.5 1.6 0 1.8 1.9 2v0.8h-6v-0.8c1.6-0.2 1.9-0.4 2.8-2.5l5.1-12.8 1.1-0.2c1.6 4.3 3.2 8.8 4.8 12.9 0.9 2.3 1.1 2.4 2.7 2.6v0.8h-6.8zm-2.3-12.3c-0.7 1.9-1.5 3.8-2.1 5.6h4.2l-2-5.6z"/><path class="s1" d="m-221.9 166.3v-0.8c1.9-0.2 2-0.4 2-2.7v-9.8c-1.9 4.3-4.3 9.9-5.7 13.3h-0.8c-1.3-3.4-3.5-8.8-5.3-13.2-0.4 8.1-0.4 9.7-0.4 10.5 0 1.3 0.6 1.7 2.4 1.8v0.8h-6v-0.8c1.4-0.1 2-0.4 2.2-1.8 0.1-0.9 0.2-2.1 0.8-10.5 0-1.2-0.1-1.8-2.3-2v-0.8h5l5 11.5 5.2-11.5h4.9v0.8c-2 0.2-2.3 0.4-2.2 2.3l0.2 9.3c0 2.4 0.1 2.5 2.2 2.7v0.8h-7.2z"/><path class="s1" d="m-204.1 166.3v-0.8c1.6-0.2 1.7-0.5 1.3-1.5-0.3-0.8-0.7-2-1.1-3.2h-5c-0.3 0.9-0.7 1.8-1 2.7-0.5 1.6 0 1.8 2 2v0.8h-6v-0.8c1.6-0.2 1.9-0.4 2.8-2.5l5.1-12.8 1.1-0.2c1.6 4.3 3.2 8.8 4.8 12.9 0.9 2.3 1.1 2.4 2.7 2.6v0.8h-6.8zm-2.3-12.3c-0.7 1.9-1.5 3.8-2.1 5.6h4.2l-2-5.6z"/></g><path fill-rule="evenodd" class="s1" d="m-459 157.4h188.3v1.8h-188.3z"/><path fill-rule="evenodd" class="s1" d="m-191.9 157.4h188.3v1.8h-188.3z"/><g><path class="s1" d="m115.7 226.2c-0.3-1.7-0.9-3.5-1.4-5.1-0.8-2.6-2.1-6.8-0.7-9.4 0.2-0.4 0.4-0.7 0.7-1l0.3-0.3 0.4 0.2c0.8 0.4 1.4 2.3 1.6 3.1q0.9 2.7 1.5 5.4c0.4 1.7 0.8 3.3 1.1 5 0.2 0.9 0.4 1.9 0.5 2.8 2.4 0.5 4.7 1 7 1.4l-0.5-3.5-3.1-0.6-2.4-9.3c-0.4-1.7-0.9-3.4-1.3-5-0.4-1.8-0.9-3.5-1.2-5.4l-0.5 0.6c-0.6 0.6-1.5 1-2.3 1.2-0.9 0.3-1.8 0.5-2.6 0.9-2.4 1.1-3.3 2.9-3.7 5.4-0.5 3.4 1.3 6.9 1.8 10.2v0.4l-0.3 0.2c-1.1 0.8-2.4 1.3-3.6 1.9-2 1.1-3 2.6-3.8 4.7 0.2 0 0.4 0.2 0.5 0.2 11.9 4.9 24.7 7.3 37.6 7.3 12.9 0 4.7 0 7-0.3l1.3-3.9c-2.7 0.2-5.5 0.4-8.3 0.4-9.9 0-19.8-1.5-29.2-4.5-0.4-0.1-0.7-0.2-1.1-0.4l-0.9-0.3 0.6-0.6c1.1-1.2 3.1-1.8 4.8-1.8m-56.2-111.7c-0.2-0.2-0.5-0.3-0.8-0.4-0.4 0-0.7 0-1.1 0h-0.4l-0.2-0.3c-0.9-1.9-1.4-3.8-3.1-5.1-0.5-0.4-1.1-0.7-1.7-1-1.1-0.4-2.2-0.6-3.3-0.4-2.7 0.5-3.7 3.2-4.1 5.6v0.6l-0.7-0.1c-4.4-1.1-4.1-5.6-3.6-9.3-2.5 2.5-4.2 5.8-2.3 9.3 1.1 2 3.1 3.7 5.1 4.8l0.4 0.2v0.4c-1.3 6.3-1.9 12.7-1.9 19.1 0 27.3 11.1 53.2 30.8 72.1l0.3 0.3c0.8 0.8 1.7 1.6 2.5 2.4l0.4 0.4c1.8 1.7 3.8 3.2 5.7 4.7l11.1-17.4c0.6-0.9 1.3-1.9 2.4-2.2 0.4-0.1 0.9-0.2 1.3-0.2-0.4-1.2-0.6-2.5-0.9-3.7-0.2-1-0.4-2-0.7-3 0-0.4-0.2-0.7-0.3-1.1-4.6 7.1-9.1 14.2-13.7 21.2l-0.4 0.5-0.5-0.4c-1.6-1.3-3.1-2.7-4.6-4.1-1.8-1.7-3.5-3.5-5.2-5.3l-0.4-0.4 8.2-6.7c-1.1-0.5-2.2-1.2-3.1-1.9-0.9-0.7-1-0.7-1.4-1 0 0.1 0 0.3 0 0.4 0 0.4 0 0.7 0 1.1-0.2 0.4-0.5 0.7-0.9 1-0.6 0.5-1.3 1-2 1.5-0.9 0.7-1.8 1.5-2.8 2.2l-0.4 0.4-0.4-0.4c-2.2-2.7-4.2-5.4-6.1-8.3l-0.3-0.5 9.3-5.6c-1.4-1.1-2.8-2.2-4-3.5-0.4 1.2-1.4 2.1-2.5 2.8l-4.8 2.9-0.3-0.5c-1.6-2.7-3-5.5-4.3-8.4l-0.3-0.5 10-4.3c-0.2-0.2-0.4-0.4-0.6-0.5-0.6-0.6-1.2-1.1-1.8-1.8-0.4-0.5-0.8-1.1-1.2-1.6 0 0 0 0.1 0 0.2-0.3 0.9-1.1 1.4-1.8 1.8-0.7 0.4-1.4 0.8-2.1 1.1q-1.6 0.8-3.3 1.5l-0.5 0.2-0.2-0.5c-2.8-7.2-4.7-14.6-5.7-22.3v-0.8l0.7 0.2c2.8 0.7 5.6 2.3 8.2 3.6q0.6 0.3 1.2 0.6l-0.4-5.1-7-2.1 1-0.7c0.9-0.6 1.9-1.1 2.9-1.6q1.4-0.6 2.7-1.2l-0.4-5.1c-1.1 0.8-2.1 1.7-3.2 2.5-1.5 1.1-3.7 2.6-5.5 3.2l-0.7 0.2-0.2-2c0-1.5 0-2.9 0-4.3 0-6 0.6-12 1.7-18v-0.5h0.6c3.6 0.6 6.6-0.9 9.1-3.3 0.7-0.7 1.6-1.2 2.5-1.6zm-6-0.8c-0.3 1.4-1.7 2.3-3.1 2-1.4-0.3-2.3-1.7-2-3.1 0.3-1.4 1.7-2.3 3.1-2 1.4 0.3 2.3 1.7 2 3.1zm21.5-30c-1.1-2.1-2.1-4.1-2.7-6.4-2.3 2.8-4.5 5.6-6.6 8.6-1.8 2.6-3.4 5.2-4.9 8-0.6 1.1-1.1 2.1-1.6 3.2-0.8 1.7-3 1-4.2 0.2l-0.4-0.3 0.2-0.4c3.9-8.1 8.7-15.5 14.5-22.3q-1.4-1.3-2.7-2.7c-4.8 5.7-9.1 11.7-12.7 18.3-1.5 2.8-2.9 5.6-4.1 8.5 1.9 1.1 4 2.4 6.1 3 1.2 0.4 2.7 0.6 4 0 1.2-0.6 2-1.8 2.5-3 0.4-0.9 0.8-1.7 1.2-2.5 1.1-2.3 2.5-4.5 3.8-6.6 1-1.6 2.2-3.2 3.4-4.7 0.3-0.4 0.7-0.7 1.2-0.8 0.6-0.2 1.2 0 1.8 0 0.4 0 0.7 0 1.1 0m29.8 121.8l-2.1-8.3c-2.5 3.7-4.9 7.5-7.2 11.3-1 1.7-2 3.4-3.1 5.1-1.6 2.7-3.2 5.4-4.9 8l3.5 2.2 9.6-15.4c0.6-0.9 1.2-1.9 2.3-2.4 0.4-0.2 0.7-0.3 1.1-0.3 0.3 0 0.5-0.1 0.8-0.2zm58.2-142c1.3 2.5 2.5 5.2 4 7.7 1.5-4.4 3-8.8 4.4-13.2 0.5-1.7 1-3.4 1.6-5.2 0.9-3.1 1.9-6.1 2.9-9.1l-3.9-1.3-5.5 17.3c-0.3 1-0.7 2-1.5 2.7-0.3 0.3-0.7 0.4-1 0.6-0.3 0.2-0.6 0.3-0.8 0.4m78.2 80.1c-4.5 0-9-0.3-13.5-0.5-1.6 0-3.2 0-4.9 0-0.7 0-1.6 0-2.3-0.3q-0.7-0.3-1.2-0.9c-0.5-0.4-0.9-0.8-1.4-1.2-0.4 0.4-0.9 0.8-1.3 1.2-1.8 1.6-3.4 3.2-5.2 4.7l29.7 1 0.2-4zm-0.9 9.3l-14.4-0.5q-2.7 0-5.4 0c-1.1 0-2.3 0-3.3-0.7-0.7-0.4-1.2-1-1.6-1.6-1.8 1.8-3.7 3.6-5.6 5.4 8.4-0.4 16.9 0.6 25.3 1.2h0.6l-0.1 0.7c-0.7 3.3-1.6 6.7-2.6 9.9v0.4h-0.5c-2.4 0-4.5 1.1-5.8 3.1-1.8 2.8-1.4 6.5 1.1 8.7l0.3 0.3-0.2 0.4c-1.4 2.8-2.9 5.5-4.5 8.2l-0.3 0.4-6.8-3.4c0.2 1 0.4 2.1 0.4 3v3.6c1.7-0.4 3.3 0 4.8 0.8 1 0.6 1.9 1.1 2.9 1.7q1.1 0.6 2.1 1.2c0.9 0.6 1.9 1.3 2.3 2.3 0.5 1.1 0.2 2.7 0 4 0.7-0.2 1.4-0.8 1.8-1.3 1-1.1 1.4-2.6 1.2-4.1-0.1-1.6-1-2.7-2.1-3.8-0.5-0.4-1-0.9-1.6-1.3-0.4-0.3-0.9-0.7-1.2-1.1l-0.3-0.3 1.5-2.6c1.1-1.9 2.1-3.9 3.1-5.8l0.2-0.4h0.4c2.5 0.2 4.8-1 6.1-3.1 1.9-2.9 1.3-6.7-1.3-9l-0.3-0.3v-0.4c0.7-1.8 1.2-3.6 1.7-5.5 0.5-2 0.9-4 1.3-6 0.3-1.4 0.5-2.8 0.7-4.3m-10.5 19.9c1-1.5 3-1.9 4.6-1 1.6 0.9 1.9 3 1 4.6-0.9 1.6-3 1.9-4.6 1-1.6-0.9-1.9-3-1-4.6zm-9.8-54.1c1.9 1.5 3.8 3 5.7 4.6 1.7 1.4 3.3 2.7 4.9 4.2 0.9 0.8 1.8 1.6 2.6 2.4-0.2-1.9-0.4-3.8-0.7-5.7-2.2-14.3-7.7-27.9-16.2-39.6-1.3-1.8-0.8-3.6 0.8-5l0.4-0.4 2.8 3.8c9.2 13.1 15 28.3 16.8 44.2 0.3 2.9 0.4 5.7-1.3 8l5.7-0.3c-0.1-2.6-0.2-5.2-0.5-7.8-1.7-15.4-7-30.2-15.5-43.2-1.1-1.7-2.2-3.2-3.3-4.8-2-2.7-4.1-5.2-6.4-7.7-1.1-1.2-2.1-2.4-3.2-3.5-3.2-3.2-6.5-6.1-10-8.8-2.4-1.8-4.8-3.5-7.3-5.1-2.3-1.5-4.6-2.8-6.9-4q-3.7-2-7.5-3.6l-4.9 16.7c-0.4 1.4-0.7 2.7-1.1 4.1-0.2 0.7-0.4 1.5-0.9 2-0.5 0.4-1.3 0.7-2.1 0.9 1.3 2.3 2.6 4.7 3.9 7 2.4-8.3 4.8-16.5 7.3-24.7l0.2-0.7 0.6 0.3c1.6 0.8 3.2 1.7 4.8 2.5 1.4 0.8 2.7 1.6 4.1 2.4l0.5 0.3-6.7 9.6c2.3 0 3.6 0.4 5.6 1.4 0-0.3 0-0.6-0.1-0.9 0-0.4 0-0.9 0-1.4 0.2-0.8 0.7-1.5 1.1-2.1 1-1.3 2-2.7 2.9-4l0.3-0.5 0.5 0.3c3.2 2.3 6.1 4.7 9 7.2l0.4 0.4-8 9.1c0.8 0 1.6 0.2 2.4 0.5 1.1 0.4 2.2 0.8 3.2 1.3 0-0.3 0-0.5 0-0.8q0-0.6 0-1.2c0.2-0.7 0.8-1.3 1.3-1.9q1.8-2 3.6-3.9l0.4-0.4 0.4 0.4c2.1 1.8 3.9 4.1 5.7 6.2l0.4 0.5-0.5 0.4c-3.6 2.3-4.1 5.9-1.7 9.3 7.5 10.4 12.6 22.2 15 34.8l0.5 2.5-1.1-0.8c-2.4-1.6-5.1-3.1-7.8-4.2m-65.6 97c-1.3 0-2.3 1.1-2.3 2.4 0 1.3 1.1 2.3 2.4 2.3 1.3 0 2.3-1.1 2.3-2.4 0-1.3-1.1-2.3-2.4-2.3zm13.5 10c1.8-0.6 3.7-1.1 5.4-1.8 13.6-5 25.8-13.1 35.6-23.7 1.5-1.7 3.4-1.5 5-0.2l0.5 0.4-3.2 3.4c-10.4 11-23.2 19.3-37.4 24.3-4.1 1.5-8.3 2.6-12.6 3.6h-0.5c0 0.1-1.8-7.1-1.8-7.1-1.1 1.8-3 3.4-4.6 4.6 2.1 1.6 3.2 5.3 3.6 7.6 0.2 1.3 0.4 2.9 0.3 4.2 0 0.8-0.3 1.6-1 2.1-0.3 0.3-0.6 0.4-1 0.6 1.7 0 3.6-0.2 4.7-1.2 1.5-1.6 1-4.6 0.6-6.5v-0.5c-0.1 0 0.4-0.1 0.4-0.1 4.2-1 8.3-2.1 12.4-3.5 13.9-4.8 26.5-12.7 37-23 1.4-1.4 2.8-2.8 4.1-4.2 1.2-1.4 2.5-2.8 3.6-4.3l-3.3-3.2c-3-3.1-6.7-2.6-9.5 0.5-8.7 9.4-19.3 16.8-31.1 21.6l-2.4 1 0.5-1.3c1.1-2.6 2-5.6 2.5-8.5-1.1 2.2-2.2 4.3-3.3 6.5-1 1.9-2 3.8-3.1 5.6q-0.9 1.5-1.8 3m-63.3-172.2c1.3 1.1 3 2 4.4 3 2.3 1.5 6.1 3.7 6.7 6.7q0 0.6 0 1.2v0.4h-0.4c-0.9 0.2-2.6-0.9-3.3-1.3-1.6-1-3.2-2-4.7-3.1-1.4-1-2.7-2-4.1-3.1-0.8-0.6-1.5-1.2-2.3-1.8-2.1 1.1-4.2 2.3-6.2 3.5l2.7 2.3 2.7-1.6 7.9 5.4c1.4 1 2.8 2 4.3 3 1.5 1 3 2.1 4.4 3.3v-0.8c0-0.9 0.5-1.7 1-2.4 0.5-0.8 1-1.6 1.4-2.4 1.1-2.4 0.6-4.4-0.7-6.5-1.8-2.9-5.5-4.4-8-6.5l-0.3-0.2v-0.4c0.5-1.3 1.1-2.5 1.5-3.8 0.8-2.1 0.5-3.9-0.2-6-0.2 0-0.4 0.1-0.6 0.2-12.2 4.2-23.4 10.6-33.2 19.1q-2.7 2.2-5.1 4.8l1.6 3.8q2.8-3 6-5.7c7.5-6.5 15.9-11.8 25-15.7 0.4-0.2 0.7-0.3 1-0.4l0.8-0.4v0.9c-0.1 1.6-1.2 3.3-2.5 4.5m96.7-5.6c-1.3 0-2.3 1.1-2.3 2.4 0 1.3 1.1 2.3 2.4 2.3 1.3 0 2.3-1.1 2.3-2.4 0-1.3-1.1-2.3-2.4-2.3zm-4 32.3c-1.3 0-2.3 1.1-2.3 2.4 0 1.3 1.1 2.3 2.4 2.3 1.3 0 2.3-1.1 2.3-2.4 0-1.3-1.1-2.3-2.4-2.3z"/><path class="s1" d="m249.8 94.2c-5.9-14-14.4-26.6-25.2-37.4-10.8-10.8-23.4-19.3-37.4-25.2-14.5-6.1-29.9-9.2-45.8-9.2-15.9 0-31.3 3.1-45.8 9.2-14 5.9-26.6 14.4-37.4 25.2-10.8 10.8-19.3 23.4-25.2 37.4-6.1 14.5-9.2 29.9-9.2 45.8 0 15.9 3.1 31.3 9.2 45.8 5.9 14 14.4 26.6 25.2 37.4 10.8 10.8 23.4 19.3 37.4 25.2 14.5 6.1 29.9 9.2 45.8 9.2 15.9 0 31.3-3.1 45.8-9.2 14-5.9 26.6-14.4 37.4-25.2 10.8-10.8 19.3-23.4 25.2-37.4 6.1-14.5 9.2-29.9 9.2-45.8 0-15.9-3.1-31.3-9.2-45.8zm-108.4 160.5c-63.3 0-114.7-51.4-114.7-114.7 0-63.3 43.7-106.7 100.3-113.8 0.6 5 3.9 9.3 8.3 11.3-5 2.3-8.4 7.3-8.4 13.2 0 5.9 3.4 10.9 8.4 13.2-5 2.3-8.4 7.3-8.4 13.2 0 5.9 0 0.1 0 0.2-28.6 6.6-49.9 32.2-49.9 62.8 0 30.6 28.9 64.4 64.4 64.4 35.5 0 64.4-28.9 64.4-64.4 0-35.5-21.3-56.2-49.9-62.8v-0.2c0-5.8-3.4-10.9-8.4-13.2 5-2.3 8.4-7.3 8.4-13.2 0-5.9-3.4-10.9-8.4-13.2 4.4-2.1 7.6-6.3 8.3-11.3 56.5 7.1 100.3 55.3 100.3 113.8 0 58.5-51.4 114.7-114.7 114.7zm23.9-171.4c7.3 3.1 13.9 7.5 19.5 13.2 5.6 5.6 10.1 12.2 13.2 19.5 3.2 7.6 4.8 15.6 4.8 23.9 0 8.3-1.6 16.3-4.8 23.9-3.1 7.3-7.5 13.9-13.2 19.5-5.6 5.6-12.2 10.1-19.5 13.2-7.6 3.2-15.6 4.8-23.9 4.8-8.3 0-16.3-1.6-23.9-4.8-7.3-3.1-13.9-7.5-19.5-13.2-5.6-5.6-10.1-12.2-13.2-19.5-3.2-7.6-4.8-15.6-4.8-23.9 0-8.3 1.6-16.3 4.8-23.9 3.1-7.3 7.5-13.9 13.2-19.5 5.6-5.6 12.2-10.1 19.5-13.2 7.6-3.2 15.6-4.8 23.9-4.8 8.3 0 16.3 1.6 23.9 4.8zm-23.9-7.7c-3.9 0-7.8 0.4-11.5 1 0.2-6.1 5.3-11.1 11.5-11.1 6.2 0 11.3 4.9 11.5 11.1-3.7-0.7-7.6-1-11.5-1zm0-50.3q5.8 0 11.4 0.6c-0.7 5.6-5.6 10-11.4 10-5.8 0-10.7-4.4-11.4-10q5.7-0.6 11.4-0.6zm-11.5 25.4c0-6.4 5.2-11.5 11.5-11.5 6.3 0 11.5 5.2 11.5 11.5 0 6.3-5.2 11.5-11.5 11.5-6.3 0-11.5-5.2-11.5-11.5z"/><path class="s1" d="m162.3 180.7c1.9-0.1 4 0 6 0-0.9 3.4-3.6 3.9-7.5 3.9 0.3 0.7 0.7 0.7 1.4 1.1 7.7 3.9 13.9-5.1 10.4-11.8-2.8-5.6-8.2-4.3-9.9 0.9-0.8 2.3-0.9 4.9-0.4 6m6.6-4.5c0 0-0.4 1.3-1.9 0.7-0.8-0.4-0.9-1.3-0.6-2 0.7-1.4 3.2-0.4 2.5 1.3zm-55.6-9.7c0.9 0.8 1.8 1 1.8 2.8v1.2c-6.2 0.4-5.9 5.7-5.9 9.9h9.8v-17.7c-1.2 1.4-4 3.1-5.8 3.8m0.1 10c0.1-1.2 0.7-1.8 1.8-2v2zm36.4-8.2l10.1 12.1c1.1 1.4-2.5 1.9-3.8 0.8l-0.9-0.8h-33v-4h17.1c-0.2-2.1-1.7-1.9-3.7-1.9-4.7 0-9.6 0.2-13.6 0 0.2-0.6 1.2-1.3 2-2.5 0.4-0.5 1.5-2.8 1.8-3.1 1.8 1.6-0.3 1.8 5 1.8h4.2c2.2 0 4.3 0 5.9 1.1 1.3 1 2.3 2.5 2.3 4.7h8.8c-2.6-3.1-5.1-6.2-7.7-9.3 1.2-1 3-1.9 5.6 1.2m12.3-18.8c1.8-1.7 1.8-1.6 1.8-3.3v-6.1c0-3.9-0.7-4.7 1.8-6.1l-0.5-0.4c-3.5-2.4-3.2-3.8-5.3-5.5 0 6.1 0 9.7 0 15.9v1.7c0 0.6-1 1.3-1.4 1.9-0.9-0.9-1.5-1.6-1.5-1.8v-17.4c-2 1.8-2.7 4.2-5.7 5.4 0.2 0.3 0 0 0.3 0.3 2 2 1.5-1.2 1.5 3.9v8.7c0 1.2 1.1 2.6 2.1 3.1l-0.9 0.9c-0.5 0.5-1.1 0.7-1.1 1.7v6.7h10.9v-5.2c0-3-0.3-2.9-1.8-4.4m-3.4 2.2c0.5 0.7 1.4 1.6 1.4 1.9v1.6h-2.9v-1.6c0-0.3 1-1.4 1.5-1.9zm-32.1-14.7c0-2.2 1-2 1.8-3.2-0.6-0.6-1.6-0.9-3.2-2.5-0.5-0.5-0.9-1-1.3-1.5-0.4-0.5-0.8-1.3-1.2-1.6v27h-4v-14c-0.5 0.2-0.4 0.2-0.8 0.6-2 2-4.1 2.5-5 3.2 1.4 0.7 1.9 1.1 1.9 3 0 1.9 0-0.4 0 1.2-2.2 0.5-3.2 0.7-4.4 2.1-1.8 2.2-1.5 5-1.5 7.8h27.5v-22.1c0-1.3 0.3-1.8 1.2-2.6 0.2-0.2 0.2-0.2 0.4-0.3 0.2-0.1 0.2-0.1 0.3-0.3-1.2-1-1.7-0.9-3.2-2.5-0.5-0.5-0.9-1-1.3-1.5-0.4-0.6-0.8-1.2-1.2-1.6v27h-6v-18.3zm-13.6 18.3c0-1.1 0.7-2 1.9-1.9v1.9h-0.6-0.7-0.6zm31.9 3.9c0.3-1.4 0-15.4 0-19.2 0-3.8-0.6-3.8 1.4-5.2l0.7-0.6c-1.2-0.5-2.8-1.8-3.5-2.6l-2.6-3.2v30.9h4zm26.5-21.5c0-1.8 0.9-2.7 2-3.4-0.7-0.4-1.3-0.8-1.9-1.2-0.6-0.5-1-0.9-1.5-1.4-1.1-1.1-2.3-3-2.6-3.3v30.9h4v-21.5zm-27-13.6c0.3-1.6 0-15.2 0-19.2 0-4-0.3-3.7 0.5-4.8 0.4-0.7 1-0.7 1.4-1.2-1.2-1.1-1.5-0.4-4.4-4-0.3-0.4-0.4-0.4-0.5-0.8l-0.7-0.8v27h-21.9v-14c-1.1 1.1-3.7 3.1-5.8 3.7l1.2 1c0.9 1 0.6 1.6 0.5 3.2-3.7 0.3-5.9 3-5.9 6.8 0 3.8-0.3 3.1 1.6 3.1 4.2 0 30.5 0.2 33.9 0m-31.3-3.9c0-1.3 0.6-1.9 1.9-2v2zm36 3.9h4c0.4-2.1-0.2-15.9 0-21.6 0-1.1 0.5-2.1 1.2-2.7l0.8-0.6c-1.2-0.5-2.7-1.8-3.4-2.5-1-1.1-2.3-3.1-2.6-3.3v30.8zm20.8-9c1.8-1.7 1.8-1.6 1.8-3.3v-6.1c0-3.9-0.7-4.7 1.8-6l-0.5-0.4c-3.5-2.4-3.2-3.8-5.3-5.5 0 6.1 0 9.7 0 15.9v1.7c0 0.6-1 1.3-1.4 1.9-0.9-0.9-1.5-1.6-1.5-1.8v-17.4c-2 1.8-2.7 4.3-5.7 5.4 0.2 0.3 0 0 0.3 0.3 2 2 1.5-1.2 1.5 3.9v8.7c0 1.2 1.1 2.6 2.1 3.1l-0.9 0.9c-0.5 0.5-1.1 0.7-1.1 1.7v6.7h10.9v-5.2c0-3-0.3-2.9-1.8-4.4m-3.8 2.1c0.5 0.6 1.4 1.6 1.4 1.9v1.6h-2.9v-1.6c0-0.3 1-1.4 1.5-1.9z"/></g></g></g></g></svg>